<svg width="108" height="66" viewBox="0 0 108 66" fill="none" xmlns="http://www.w3.org/2000/svg">
<path d="M57.2936 61.9473C57.1664 62.8238 56.7278 63.6253 56.0581 64.2049C55.3883 64.7846 54.5322 65.1036 53.6465 65.1036C52.7607 65.1036 51.9046 64.7846 51.2349 64.2049C50.5651 63.6253 50.1265 62.8238 49.9994 61.9473H40.6687V82.5784H66.6243V61.9473H57.2936Z" fill="#D6D6E3"/>
<path d="M105.846 62.4745H1.44698C1.06333 62.4741 0.695517 62.3215 0.424241 62.0503C0.152965 61.779 0.000390548 61.4112 0 61.0275L0 1.44698C0.000390548 1.06333 0.152965 0.695517 0.424241 0.424241C0.695517 0.152965 1.06333 0.000390548 1.44698 0H105.846C106.23 0.000497025 106.597 0.153118 106.869 0.424383C107.14 0.695647 107.292 1.0634 107.293 1.44698V61.0275C107.292 61.4112 107.14 61.779 106.868 62.0503C106.597 62.3215 106.229 62.4741 105.846 62.4745H105.846Z" fill="#090814"/>
<path d="M104.856 2.41504H2.69409V60.0606H104.856V2.41504Z" fill="white"/>
<path d="M5.45755 41.0351L7.6085 40.9131L7.45024 43.001H5.26147L5.45755 41.0351Z" fill="#ED9DA0"/>
<path d="M18.1633 41.4401C18.7465 40.9581 19.4681 40.8684 19.7747 41.2398C20.0812 41.6111 19.857 42.3025 19.2735 42.7847C19.043 42.9804 18.769 43.1182 18.4744 43.1863L15.9772 45.1973L15.0585 44.0052L17.6178 42.1494C17.7403 41.8728 17.9274 41.6296 18.1633 41.4401Z" fill="#ED9DA0"/>
<path d="M3.72971 45.9771C3.7285 45.8882 3.72971 45.1125 4.30359 44.6225C4.96331 44.0593 5.89421 44.2873 6.22064 44.3677C6.97491 44.5524 7.03674 44.876 7.745 45.2084C9.0702 45.8303 7.40971 45.512 8.19832 45.3126C8.47124 45.2435 12.3978 44.9712 13.3752 44.3696C15.2761 43.1996 16.5713 42.4902 16.5713 42.4902L17.4185 44.1828C16.5783 45.3027 15.5863 46.3002 14.471 47.1467C12.7035 48.4404 11.8197 49.0873 10.4767 49.3371C10.3611 49.3586 7.51647 49.8443 5.22537 48.1326C4.70232 47.7422 3.74527 47.0268 3.73038 45.9774L3.72971 45.9771Z" fill="#78BE13"/>
<path d="M6.35623 41.9578C7.98525 41.9578 9.30583 40.6372 9.30583 39.0082C9.30583 37.3792 7.98525 36.0586 6.35623 36.0586C4.7272 36.0586 3.40662 37.3792 3.40662 39.0082C3.40662 40.6372 4.7272 41.9578 6.35623 41.9578Z" fill="#ED9DA0"/>
<path d="M29.4563 58.5371L26.4187 55.4277L24.8506 57.0639L27.1138 60.0453L29.3586 60.302L29.4563 58.5371Z" fill="#ED9DA0"/>
<path d="M12.111 52.7066C12.2887 52.7214 12.8533 52.8344 13.3929 52.5376C13.6466 52.3926 13.8601 52.1864 14.0138 51.9379C14.8051 50.7492 17.8431 48.8956 20.5695 48.7815C21.1865 48.7556 21.5934 48.8272 21.9627 49.0197C22.4865 49.2927 22.6956 49.6838 23.3602 50.5999C23.7238 51.1011 24.126 51.5732 24.494 52.0712C26.6482 54.9863 27.4648 55.2153 27.3814 56.1498C27.2887 57.1868 26.1705 58.1705 25.4272 58.0569C25.1228 58.0104 25.0049 57.7987 24.5983 57.3702C23.4058 56.1138 22.9124 56.346 22.0635 55.3837C21.0722 54.2602 21.202 53.3287 20.6849 53.2927C20.2053 53.2593 20.0009 54.0541 18.9777 55.1097C18.5093 55.5925 18.1757 55.8144 17.1593 56.5194C13.2015 59.2653 13.1383 59.4588 12.3397 59.6772C11.9902 59.7729 9.50982 60.453 8.62627 59.3709C7.24354 57.6774 10.5101 52.5736 12.111 52.7066Z" fill="#090814"/>
<path d="M28.5274 59.2398C28.7509 59.1395 29.0121 59.0222 29.0961 58.7525C29.1245 58.6576 29.1308 58.5576 29.1145 58.4599C29.0982 58.3623 29.0598 58.2697 29.0022 58.1892C28.8666 58.0097 28.6658 57.9861 28.6739 57.9543C28.6862 57.9061 29.161 57.9248 29.682 58.1091C30.0839 58.2619 30.4588 58.4779 30.7925 58.7491C31.2465 59.1036 31.1855 59.1747 31.4702 59.3794C32.3441 60.0068 33.1638 59.5124 33.6367 60.1007C33.7279 60.2124 33.7919 60.3436 33.8237 60.4842C33.8556 60.6247 33.8544 60.7708 33.8203 60.9108C33.6661 61.4338 32.916 61.6144 32.506 61.7074C31.5187 61.9314 30.7715 61.7486 29.991 61.617C27.3373 61.1699 25.8469 61.5768 25.6468 60.9623C25.6089 60.8459 25.6704 60.8558 25.8748 60.002C26.0767 59.1592 26.07 58.9279 26.2421 58.8603C26.5009 58.7588 26.6749 59.2208 27.327 59.3789C27.7311 59.4682 28.1535 59.4193 28.5265 59.24L28.5274 59.2398Z" fill="#090814"/>
<path d="M24.0557 68.7099L23.2883 64.4316L21.0721 64.9044L21.2706 68.6422L22.9844 70.1149L24.0557 68.7099Z" fill="#ED9DA0"/>
<path d="M12.9778 54.1452C13.1164 54.2572 13.5201 54.6683 14.1334 54.7253C14.4248 54.7478 14.7172 54.6971 14.984 54.5778C16.3064 54.0386 19.861 54.2107 22.1809 55.6472C22.7063 55.9726 23.0024 56.26 23.2002 56.6262C23.4802 57.1462 23.4337 57.5873 23.4692 58.7185C23.4887 59.3373 23.5564 59.9538 23.5812 60.5725C23.7267 64.1943 24.2739 64.8422 23.6801 65.5687C23.0212 66.3747 21.5433 66.5611 20.9921 66.0494C20.7664 65.84 20.7877 65.5986 20.6918 65.0157C20.4102 63.3065 19.8721 63.2215 19.71 61.9486C19.5207 60.4624 20.1512 59.7644 19.7435 59.4443C19.3654 59.1474 18.7511 59.6905 17.3105 59.9892C16.6516 60.1259 16.251 60.1218 15.0142 60.1346C10.1974 60.1841 10.0367 60.3089 9.25297 60.0407C8.91004 59.9237 6.47584 59.0936 6.35232 57.702C6.15919 55.5243 11.7279 53.1355 12.9776 54.1444L12.9778 54.1452Z" fill="#090814"/>
<path d="M6.7583 39.5713C6.8731 39.1605 6.72892 39.0109 6.87592 38.8264C6.87592 38.8264 6.93506 38.7523 7.46388 38.5521C7.3079 37.6468 7.42472 37.4936 7.42472 37.4936C7.49938 37.4156 7.59196 37.3569 7.69442 37.3228C7.79688 37.2886 7.90613 37.28 8.01268 37.2977C8.40162 37.3465 8.46975 37.6976 8.71826 37.6897C9.0616 37.6788 9.47334 36.9923 9.34552 36.396C9.24132 35.9102 8.79176 35.5493 8.6791 35.612C8.56645 35.6746 8.16517 35.4003 8.01268 35.4552C7.90847 35.4926 7.41828 35.4428 7.3071 35.4943C7.18572 35.5507 6.83769 35.9014 6.80483 35.8571C6.57389 35.5501 6.57871 35.4428 6.44473 35.3767C6.20721 35.2595 5.9485 35.4762 5.50391 35.6903C4.5879 36.1309 4.3198 35.868 3.89667 36.2391C3.68289 36.4269 3.56835 36.7848 3.34786 37.4935C3.0394 38.4847 2.8853 38.9803 3.0343 39.4536C3.18612 39.9364 3.40983 39.8311 3.73989 40.512C4.10736 41.2699 3.98129 41.7105 4.32785 41.884C4.59608 42.0181 5.0274 41.9328 5.19021 41.6881C5.46904 41.269 4.74844 40.7021 4.99427 40.0417C5.14515 39.6362 5.61053 39.3288 5.89593 39.4144C6.21861 39.5112 6.24235 40.0898 6.44473 40.0808C6.61801 40.0732 6.73831 39.6429 6.7583 39.5713Z" fill="#090814"/>
<path d="M4.52384 42.1076C5.12736 41.4308 7.58597 42.1313 7.81678 43.2052C7.91174 43.647 7.56196 43.8334 7.66 44.3419C7.80431 45.0859 8.62148 45.0352 9.22808 45.7924C10.0892 46.8675 9.20207 47.9184 10.1689 49.7125C10.3754 50.0959 10.5497 50.419 10.9138 50.7318C11.7493 51.4494 12.5268 51.2033 12.9523 51.8687C13.2705 52.3662 13.1401 52.9794 13.1091 53.123C12.9836 53.7121 12.6433 53.8556 12.4035 54.3383C12.0045 55.1413 12.4563 55.7309 12.482 56.6904C12.5141 57.8909 11.8762 59.5548 10.6004 60.1008C9.16706 60.7143 7.43831 59.6985 6.60183 58.6895C6.10265 58.0876 5.95807 57.5324 5.73946 56.847C4.7635 53.7842 4.21215 54.0612 3.4658 51.6333C2.61255 48.8571 2.44491 45.606 3.4658 44.577C3.785 44.2953 4.03916 43.9475 4.21068 43.5578C4.52974 42.7933 4.25413 42.4103 4.52424 42.1073L4.52384 42.1076Z" fill="#78BE13"/>
<path d="M13.4424 57.862C13.9103 58.4565 13.9829 59.1799 13.6044 59.4777C13.2259 59.7754 12.5399 59.5348 12.0719 58.9399C11.8816 58.7048 11.7505 58.4276 11.6894 58.1314L9.73853 55.5872L10.7467 54.8184L12.7465 57.2995C13.0201 57.4287 13.2587 57.6216 13.4424 57.862Z" fill="#ED9DA0"/>
<path d="M6.29744 44.6869C6.38421 44.6675 7.14384 44.51 7.74092 44.9722C8.42693 45.5032 8.39367 46.4609 8.382 46.7968C8.35517 47.5728 8.051 47.6994 7.87008 48.4607C7.53157 49.8849 8.17626 51.2083 8.53234 51.9395C8.87227 52.6222 9.31309 53.2498 9.83997 53.8012C10.7081 54.7357 11.6817 55.5665 12.7412 56.2769L11.2715 57.5832C11.2715 57.5832 8.93053 56.8697 7.34434 55.4402C5.71738 53.9738 3.21519 48.7856 2.69643 47.5219C2.65177 47.413 3.28452 49.1825 4.49264 46.5903C4.76825 45.999 5.27319 44.9157 6.29744 44.6869Z" fill="#78BE13"/>
<path d="M26.4092 44.9768C26.3902 44.9768 26.3713 44.9762 26.3522 44.9749C24.8598 44.8659 23.4172 44.391 22.1518 43.5923C20.8863 42.7936 19.8371 41.6955 19.0966 40.3952C19.0044 40.2343 18.9639 40.0489 18.9804 39.8643C18.997 39.6796 19.0698 39.5044 19.1891 39.3625L23.4352 34.3034C23.5233 34.2007 23.6329 34.1185 23.7561 34.0627C23.8794 34.007 24.0134 33.9789 24.1487 33.9805C24.3365 33.985 24.7811 34.0324 24.8673 34.3751C25.377 36.4003 27.5313 38.7804 30.1216 39.096C30.3842 39.1279 30.5949 39.3621 30.6849 39.7226C30.7199 39.8596 30.722 40.0029 30.6909 40.1408C30.6598 40.2788 30.5963 40.4074 30.5058 40.516L27.1044 44.6468C27.0201 44.7499 26.9139 44.833 26.7936 44.89C26.6733 44.9471 26.5418 44.9768 26.4086 44.9768H26.4092ZM24.1325 34.1843C24.0296 34.1844 23.9279 34.2068 23.8344 34.25C23.741 34.2931 23.658 34.3561 23.5912 34.4344L19.3455 39.4931C19.253 39.6029 19.1965 39.7385 19.1836 39.8815C19.1706 40.0245 19.2019 40.168 19.2731 40.2927C19.9967 41.5641 21.0223 42.6378 22.2593 43.4189C23.4963 44.2 24.9066 44.6644 26.3657 44.7712C26.476 44.7782 26.5865 44.7588 26.6878 44.7144C26.7891 44.6701 26.8784 44.6022 26.9481 44.5164L30.3497 40.3856C30.4198 40.3015 30.4689 40.202 30.493 40.0951C30.5171 39.9883 30.5155 39.8773 30.4884 39.7713C30.4347 39.5585 30.3042 39.3224 30.0973 39.2972C27.4214 38.9713 25.1967 36.5138 24.6702 34.4241C24.6275 34.2548 24.3708 34.1887 24.1447 34.1833H24.1326L24.1325 34.1843Z" fill="#3F3D56"/>
<path d="M21.6697 40.5611L24.7309 37.4394C24.9401 37.2261 24.6124 36.8977 24.4029 37.1114L21.3415 40.2331C21.1323 40.4464 21.4602 40.7748 21.6697 40.5611Z" fill="#E6E6E6"/>
<path d="M23.5173 41.4404C24.3624 40.6816 25.0963 39.8076 25.6975 38.8441C25.8562 38.5901 25.4549 38.357 25.2969 38.61C24.7156 39.539 24.006 40.3814 23.1893 41.1122C22.9665 41.3119 23.2955 41.6392 23.5173 41.4404Z" fill="#E6E6E6"/>
<path d="M25.1827 42.4932C25.953 41.6415 26.6054 40.69 27.1221 39.6643C27.2562 39.3982 26.8558 39.163 26.7215 39.4302C26.2247 40.4215 25.5968 41.3414 24.8546 42.1652C24.6549 42.3863 24.9822 42.7151 25.1827 42.4932Z" fill="#E6E6E6"/>
<path d="M23.8712 36.8738C25.5758 36.8738 26.9576 35.5211 26.9576 33.8524C26.9576 32.1838 25.5758 30.8311 23.8712 30.8311C22.1666 30.8311 20.7848 32.1838 20.7848 33.8524C20.7848 35.5211 22.1666 36.8738 23.8712 36.8738Z" fill="#78BE13"/>
<path d="M25.477 35.286L24.0531 31.7849C24.0421 31.7491 24.0199 31.7177 23.9897 31.6954C23.9595 31.6732 23.923 31.6611 23.8855 31.6611C23.848 31.6611 23.8115 31.6732 23.7813 31.6954C23.7511 31.7177 23.7289 31.7491 23.7178 31.7849C23.2506 33.0081 22.9405 34.2857 22.795 35.5869C22.7699 35.8086 23.1169 35.8069 23.1424 35.5869C23.2005 35.0777 23.2851 34.5719 23.3956 34.0714C23.7876 34.0916 24.1802 34.0485 24.5585 33.9436L25.1419 35.3787C25.2253 35.5827 25.5614 35.4933 25.477 35.286ZM23.4746 33.7284C23.5915 33.2495 23.7315 32.777 23.8945 32.3108L24.4268 33.6195C24.1162 33.7012 23.7955 33.7378 23.4746 33.7284Z" fill="white"/>
<path d="M76.7143 21.8613H56.8651C56.4207 21.8613 56.0604 22.2216 56.0604 22.666C56.0604 23.1104 56.4207 23.4707 56.8651 23.4707H76.7143C77.1587 23.4707 77.519 23.1104 77.519 22.666C77.519 22.2216 77.1587 21.8613 76.7143 21.8613Z" fill="#090814"/>
<path d="M80.6036 26.6895H52.9757C52.5313 26.6895 52.171 27.0497 52.171 27.4941C52.171 27.9386 52.5313 28.2988 52.9757 28.2988H80.6036C81.048 28.2988 81.4083 27.9386 81.4083 27.4941C81.4083 27.0497 81.048 26.6895 80.6036 26.6895Z" fill="#F2F2F2"/>
<path d="M80.6036 29.9082H52.9757C52.5313 29.9082 52.171 30.2685 52.171 30.7129C52.171 31.1573 52.5313 31.5176 52.9757 31.5176H80.6036C81.048 31.5176 81.4083 31.1573 81.4083 30.7129C81.4083 30.2685 81.048 29.9082 80.6036 29.9082Z" fill="#F2F2F2"/>
<path d="M57.8152 41.3095L56.0604 40.478C56.7801 41.4824 57.4002 43.051 57.7323 44.2993C58.2944 43.1366 59.2006 41.7139 60.0976 40.8641L58.243 41.3412C59.3858 35.7405 63.684 31.7198 68.6062 31.7198L68.6759 31.5176C63.5346 31.5178 58.9819 35.4827 57.8152 41.3095Z" fill="#3F3D56"/>
<path d="M65.3144 44.2578H52.9757C52.5313 44.2578 52.171 44.6181 52.171 45.0625C52.171 45.5069 52.5313 45.8672 52.9757 45.8672H65.3144C65.7588 45.8672 66.1191 45.5069 66.1191 45.0625C66.1191 44.6181 65.7588 44.2578 65.3144 44.2578Z" fill="#78BE13"/>
<path d="M80.6036 44.2578H68.2649C67.8205 44.2578 67.4602 44.6181 67.4602 45.0625C67.4602 45.5069 67.8205 45.8672 68.2649 45.8672H80.6036C81.048 45.8672 81.4082 45.5069 81.4082 45.0625C81.4082 44.6181 81.048 44.2578 80.6036 44.2578Z" fill="#D6D6E3"/>
<path d="M65.3144 47.4775H52.9757C52.5313 47.4775 52.171 47.8378 52.171 48.2822C52.171 48.7267 52.5313 49.0869 52.9757 49.0869H65.3144C65.7588 49.0869 66.1191 48.7267 66.1191 48.2822C66.1191 47.8378 65.7588 47.4775 65.3144 47.4775Z" fill="#D6D6E3"/>
<path d="M80.6036 47.4775H68.2649C67.8205 47.4775 67.4602 47.8378 67.4602 48.2822C67.4602 48.7267 67.8205 49.0869 68.2649 49.0869H80.6036C81.048 49.0869 81.4082 48.7267 81.4082 48.2822C81.4082 47.8378 81.048 47.4775 80.6036 47.4775Z" fill="#D6D6E3"/>
<path d="M66.6599 18.643C69.0301 18.643 70.9516 16.7215 70.9516 14.3513C70.9516 11.981 69.0301 10.0596 66.6599 10.0596C64.2896 10.0596 62.3682 11.981 62.3682 14.3513C62.3682 16.7215 64.2896 18.643 66.6599 18.643Z" fill="#78BE13"/>
<path d="M66.5767 17.3048C66.8556 17.3048 67.0817 17.0787 67.0817 16.7999C67.0817 16.521 66.8556 16.2949 66.5767 16.2949C66.2978 16.2949 66.0718 16.521 66.0718 16.7999C66.0718 17.0787 66.2978 17.3048 66.5767 17.3048Z" fill="white"/>
<path d="M66.5224 11.53C66.1417 11.5339 65.7776 11.6861 65.5075 11.9543C65.2374 12.2225 65.0825 12.5855 65.0758 12.9661C65.0758 12.9733 65.0758 13.0246 65.0758 13.0916C65.0758 13.1899 65.1148 13.2841 65.1843 13.3535C65.2538 13.423 65.348 13.462 65.4462 13.462C65.4949 13.462 65.5431 13.4524 65.5881 13.4338C65.633 13.4151 65.6739 13.3878 65.7083 13.3534C65.7427 13.3189 65.77 13.2781 65.7886 13.2331C65.8072 13.1881 65.8168 13.1399 65.8168 13.0912C65.8168 13.0456 65.8168 13.0141 65.8168 13.0121C65.8167 12.8901 65.8485 12.7702 65.9088 12.6642C65.9691 12.5582 66.0561 12.4697 66.161 12.4075C66.2659 12.3453 66.3852 12.3114 66.5072 12.3093C66.6291 12.3071 66.7495 12.3368 66.8566 12.3953C66.9636 12.4539 67.0535 12.5392 67.1175 12.6431C67.1815 12.7469 67.2174 12.8656 67.2216 12.9875C67.2259 13.1094 67.1983 13.2304 67.1416 13.3384C67.0849 13.4464 67.001 13.5378 66.8983 13.6035C66.8983 13.6035 66.3711 13.943 66.2103 14.4082C66.182 14.5036 66.1677 14.6026 66.1678 14.7021C66.1678 14.7423 66.1702 15.1008 66.1749 15.3913C66.1765 15.4915 66.2175 15.587 66.289 15.6573C66.3604 15.7275 66.4566 15.7669 66.5568 15.7668C66.6581 15.7668 66.7553 15.7266 66.8269 15.6549C66.8986 15.5833 66.9388 15.4862 66.9388 15.3849V15.3824C66.9372 15.1165 66.9363 14.8067 66.9363 14.7843C66.9363 14.4984 67.2121 14.2135 67.4387 14.0277C67.7009 13.8153 67.8852 13.5219 67.9626 13.1934C67.9791 13.1257 67.9881 13.0563 67.9895 12.9866C67.9895 12.6001 67.8359 12.2294 67.5626 11.9561C67.2893 11.6828 66.9187 11.5293 66.5322 11.5293L66.5224 11.53Z" fill="white"/>
</svg>
