<svg width="97" height="83" viewBox="0 0 97 83" fill="none" xmlns="http://www.w3.org/2000/svg">
<g clip-path="url(#clip0_2337_22654)">
<path d="M62.3864 79.0001L97.0001 78.9174V78.7285L62.3864 78.8112V79.0001Z" fill="#D6D6E3"/>
<path d="M68.9632 43.8949L70.6975 40.4912L72.6929 41.4995L70.9587 44.9032C71.0526 45.1993 71.0864 45.5109 71.0581 45.8201C71.0298 46.1293 70.94 46.4297 70.7939 46.7039C70.2533 47.7648 69.1003 48.2636 68.2187 47.8181C67.337 47.3726 67.0605 46.1515 67.6011 45.0903C67.7371 44.811 67.9276 44.5614 68.1615 44.3561C68.3953 44.1508 68.6679 43.994 68.9632 43.8947V43.8949Z" fill="#9F616A"/>
<path d="M80.7335 28.5073L71.972 44.8137L68.5462 42.989L76.2211 26.2803" fill="#78BE13"/>
<path d="M75.9475 32.3291L73.5597 43.3731L83.9671 43.7351C83.9671 43.7351 82.6036 36.065 83.0876 34.7393L75.9475 32.3291Z" fill="#9F616A"/>
<path d="M73.9593 73.4287H71.5273V76.6207H73.9593V73.4287Z" fill="#9F616A"/>
<path d="M74.4515 78.5099C74.5434 78.4458 74.6207 78.3631 74.6782 78.2672C74.7357 78.1713 74.7722 78.0643 74.7852 77.9534C74.8006 77.7227 74.6848 77.4753 74.4409 77.218C74.4351 77.1439 74.3593 76.2263 74.1907 76.0619C74.2049 76.0128 74.2907 75.6877 74.15 75.4757C74.1138 75.4246 74.0664 75.3824 74.0113 75.3525C73.9562 75.3226 73.8949 75.3057 73.8322 75.3031L73.8259 75.3025L73.8227 75.3079C73.8186 75.315 73.4083 76.025 72.7909 76.0873C72.4369 76.1235 72.0827 75.9417 71.7377 75.5482C71.7256 75.5191 71.6279 75.0398 71.565 74.7226L71.5624 74.71L68.1988 76.4706L66.2327 77.0124C66.1204 77.0434 66.0203 77.1077 65.9457 77.1968C65.8711 77.2859 65.8256 77.3955 65.8152 77.511C65.8049 77.6266 65.8302 77.7425 65.8877 77.8434C65.9453 77.9442 66.0324 78.0252 66.1374 78.0754L67.0905 78.5317C67.4913 78.7229 67.9301 78.8224 68.3745 78.823H73.5442C73.8737 78.8249 74.1939 78.7145 74.4517 78.5102L74.4515 78.5099Z" fill="#090814"/>
<path d="M89.9992 71.972L87.664 72.6484L88.5593 75.7134L90.8946 75.0369L89.9992 71.972Z" fill="#9F616A"/>
<path d="M91.8975 76.715C91.9678 76.6279 92.0188 76.5269 92.0472 76.4187C92.0755 76.3106 92.0805 76.1976 92.0619 76.0874C92.0119 75.8617 91.8316 75.6563 91.5249 75.477C91.4985 75.4075 91.1684 74.5476 90.9604 74.4366C90.9604 74.3856 90.9514 74.0489 90.7568 73.885C90.7078 73.846 90.6504 73.8188 90.5891 73.8054C90.5278 73.792 90.4642 73.7928 90.4033 73.8078L90.3971 73.8089L90.3956 73.815C90.3937 73.823 90.1988 74.6187 89.6235 74.8504C89.2937 74.9831 88.9026 74.9076 88.461 74.6257C88.441 74.6016 88.2129 74.1682 88.0636 73.881L88.0576 73.869L85.3215 76.496L83.5855 77.5631C83.4864 77.624 83.4083 77.7135 83.3617 77.8198C83.315 77.926 83.302 78.0439 83.3244 78.1577C83.3468 78.2715 83.4035 78.3758 83.487 78.4567C83.5705 78.5375 83.6767 78.5911 83.7916 78.6103L84.8347 78.7832C85.2733 78.8553 85.7225 78.8289 86.1495 78.7059L91.1133 77.2678C91.4302 77.178 91.7067 76.983 91.8969 76.715H91.8975Z" fill="#090814"/>
<path d="M85.0912 38.1191L74.6838 38.3605C74.6838 38.3605 68.3595 56.5137 68.6016 73.7458H77.2833L77.7988 53.7416L79.3068 74.5228L90.7475 73.8668L85.0912 38.1191Z" fill="#090814"/>
<path d="M75.1371 17.8442C75.137 17.1633 75.3142 16.494 75.6514 15.9016C75.9887 15.3093 76.4744 14.8142 77.0612 14.4646C77.648 14.1151 78.3158 13.9231 78.9994 13.9073C79.683 13.8915 80.359 14.0526 80.9614 14.3747C81.5638 14.6968 82.072 15.169 82.4364 15.7452C82.8008 16.3213 83.009 16.9817 83.0405 17.6619C83.072 18.3421 82.9259 19.0188 82.6163 19.6259C82.3068 20.233 81.8444 20.7498 81.2743 21.1258C81.6015 21.9374 82.0365 22.7016 82.5678 23.3979L78.6713 26.6313L77.9069 21.6015C77.1038 21.3503 76.4021 20.8504 75.904 20.1746C75.4058 19.4989 75.1372 18.6824 75.1371 17.8442Z" fill="#9F616A"/>
<path d="M77.916 23.4899L82.3936 22.4053L85.2637 26.0647C85.9473 27.4536 86.0552 29.0544 85.564 30.5218L83.1841 37.6317C83.1841 37.6317 75.9231 37.511 74.35 33.2934L73.899 32.3577C73.5964 31.7301 73.4705 31.0324 73.5345 30.3391C73.5985 29.6458 73.8502 28.9828 74.2626 28.4205L77.916 23.4899Z" fill="#78BE13"/>
<path d="M82.6821 46.9956L82.5989 43.1801L84.836 43.1318L84.9192 46.9474C85.1423 47.1643 85.3198 47.4233 85.4413 47.7093C85.5628 47.9953 85.6259 48.3025 85.6269 48.613C85.6529 49.8024 84.8725 50.7838 83.8841 50.8051C82.8956 50.8265 82.073 49.8791 82.0475 48.6898C82.0351 48.3796 82.0848 48.07 82.1938 47.7792C82.3027 47.4883 82.4687 47.222 82.6821 46.9956Z" fill="#9F616A"/>
<path d="M85.7707 27.8994V46.3935H81.8855L80.7372 28.0555" fill="#78BE13"/>
<path d="M81.1762 18.4266C81.1762 18.4266 78.062 17.3978 78.8297 16.2299C78.8297 16.2299 75.5245 16.8032 75.4392 16.2299C75.3538 15.6566 75.4392 11.983 79.9172 12.5776C84.3952 13.1721 83.7981 16.9093 83.7981 16.9093C83.7981 16.9093 83.4709 20.522 81.0616 21.2652C81.0616 21.2652 82.9247 17.6835 81.1762 18.4266Z" fill="#090814"/>
<path d="M82.1576 14.6881C82.1576 14.6881 83.0772 14.0268 84.1499 14.2303C84.5256 14.3015 84.9227 14.5753 85.2808 14.901C85.9954 15.5641 86.5444 16.3843 86.884 17.2963C87.8218 19.7441 89.7899 25.8669 86.3467 26.6176C82.0298 27.5591 81.7617 18.4655 81.7617 18.4655L82.1576 14.6884V14.6881Z" fill="#090814"/>
<path d="M41.8488 4H2.10978C1.5504 4.00051 1.01407 4.22202 0.618529 4.6159C0.222986 5.00978 0.000544007 5.54385 3.05176e-05 6.10089V12.514C0.000544007 13.071 0.222986 13.6051 0.618529 13.999C1.01407 14.3928 1.5504 14.6144 2.10978 14.6149H41.8488C42.4082 14.6144 42.9445 14.3929 43.3401 13.999C43.7356 13.6051 43.9581 13.071 43.9585 12.514V6.10089C43.958 5.54385 43.7356 5.00978 43.34 4.6159C42.9445 4.22202 42.4082 4.00051 41.8488 4Z" fill="#F2F2F2"/>
<path d="M62.8368 42.8723C62.8069 42.8985 62.7826 42.9303 62.7651 42.9659C62.7476 43.0015 62.7373 43.0402 62.7348 43.0797C62.7324 43.1193 62.7378 43.159 62.7507 43.1965C62.7636 43.234 62.7838 43.2686 62.8102 43.2983L63.4989 44.0756L63.462 44.1126L63.9308 44.6397L63.9657 44.6024L66.4331 47.3869C66.5175 47.4821 66.6338 47.5434 66.7603 47.5595C66.8868 47.5756 67.0148 47.5454 67.1205 47.4745L69.0955 46.1486C69.1436 46.1164 69.184 46.074 69.2139 46.0245C69.2437 45.975 69.2624 45.9196 69.2685 45.8621C69.2746 45.8047 69.268 45.7466 69.2492 45.6919C69.2304 45.6373 69.1998 45.5874 69.1596 45.5457L65.4721 41.7263C65.3947 41.6463 65.2923 41.5947 65.1816 41.5802C65.071 41.5657 64.9587 41.589 64.8632 41.6464L62.8826 42.8392C62.8663 42.8488 62.851 42.8598 62.8368 42.8723Z" fill="#3F3D56"/>
<path d="M64.5964 42.1205L63.5554 42.7474C63.5367 42.7587 63.5147 42.7635 63.4929 42.7611C63.4711 42.7587 63.4507 42.7492 63.4349 42.7341C63.417 42.717 63.3939 42.7063 63.3692 42.7036C63.3445 42.7008 63.3197 42.7063 63.2984 42.7191L63.0791 42.8511C63.0492 42.8691 63.0236 42.8935 63.0041 42.9224C62.9847 42.9514 62.9719 42.9842 62.9666 43.0187C62.9613 43.0531 62.9636 43.0883 62.9735 43.1217C62.9834 43.1552 63.0005 43.1861 63.0236 43.2122L66.5976 47.2516C66.6419 47.3017 66.7033 47.3339 66.7699 47.3419C66.8365 47.3499 66.9037 47.3331 66.9586 47.2949L68.9073 45.9405C68.9321 45.9233 68.953 45.9008 68.9683 45.8748C68.9837 45.8488 68.9932 45.8198 68.9963 45.7897C68.9993 45.7597 68.9958 45.7293 68.986 45.7007C68.9763 45.6722 68.9604 45.646 68.9395 45.6241L65.3141 41.8168C65.2607 41.7608 65.1896 41.7246 65.1128 41.7143C65.0359 41.704 64.9579 41.7202 64.8915 41.7601L64.6607 41.8991C64.6801 41.9372 64.6843 41.9813 64.6724 42.0224C64.6604 42.0635 64.6333 42.0985 64.5964 42.1205Z" fill="#78BE13"/>
<path d="M66.3778 45.2286C66.3377 45.2622 66.2877 45.2819 66.2353 45.2847L66.2321 45.2849L65.5412 45.3159C65.4765 45.3188 65.4133 45.2959 65.3655 45.2524C65.3177 45.2088 65.2892 45.1482 65.2862 45.0837C65.2833 45.0193 65.3062 44.9563 65.3499 44.9087C65.3936 44.8611 65.4545 44.8328 65.5192 44.8299L65.967 44.8105L65.9053 43.4369C65.9038 43.4049 65.9086 43.373 65.9196 43.343C65.9305 43.3129 65.9473 43.2853 65.969 43.2618C65.9906 43.2382 66.0168 43.2191 66.0458 43.2057C66.0749 43.1922 66.1064 43.1845 66.1385 43.1832L66.1392 43.1921L66.1386 43.1831C66.2032 43.1804 66.2664 43.2033 66.3141 43.2468C66.3619 43.2903 66.3903 43.3509 66.3932 43.4153L66.4653 45.0315C66.4669 45.0688 66.4598 45.1059 66.4447 45.14C66.4295 45.1741 66.4067 45.2043 66.378 45.2282L66.3778 45.2286Z" fill="white"/>
<path d="M55.675 10.8008H15.9353C15.376 10.8013 14.8396 11.0228 14.4441 11.4167C14.0485 11.8106 13.8261 12.3446 13.8256 12.9017V19.3151C13.8263 19.872 14.0488 20.4059 14.4443 20.7996C14.8399 21.1934 15.3761 21.4148 15.9353 21.4153H55.675C56.2341 21.4146 56.7701 21.1931 57.1655 20.7994C57.5609 20.4057 57.7833 19.8719 57.784 19.3151V12.9015C57.7834 12.3447 57.5611 11.8107 57.1657 11.4169C56.7703 11.0231 56.2342 10.8015 55.675 10.8008Z" fill="white"/>
<path d="M55.675 10.8008H15.9353C15.376 10.8013 14.8396 11.0228 14.4441 11.4167C14.0485 11.8106 13.8261 12.3446 13.8256 12.9017V19.3151C13.8263 19.872 14.0488 20.4059 14.4443 20.7996C14.8399 21.1934 15.3761 21.4148 15.9353 21.4153H55.675C56.2341 21.4146 56.7701 21.1931 57.1655 20.7994C57.5609 20.4057 57.7833 19.8719 57.784 19.3151V12.9015C57.7834 12.3447 57.5611 11.8107 57.1657 11.4169C56.7703 11.0231 56.2342 10.8015 55.675 10.8008ZM57.5621 19.3151C57.5611 19.8132 57.362 20.2907 57.0083 20.6429C56.6546 20.9951 56.1752 21.1934 55.675 21.1944H15.9353C15.435 21.1936 14.9554 20.9953 14.6016 20.6431C14.2478 20.2908 14.0486 19.8133 14.0476 19.3151V12.9015C14.0485 12.4033 14.2476 11.9256 14.6015 11.5733C14.9553 11.2209 15.4349 11.0226 15.9353 11.0218H55.675C56.1754 11.0226 56.655 11.2209 57.0088 11.5733C57.3627 11.9256 57.5618 12.4033 57.5627 12.9015L57.5621 19.3151Z" fill="#3F3D56"/>
<path d="M24.0222 19.7643C23.296 19.7643 22.586 19.5499 21.9822 19.1481C21.3783 18.7463 20.9077 18.1752 20.6297 17.5071C20.3518 16.8389 20.2791 16.1037 20.4208 15.3944C20.5625 14.6851 20.9122 14.0335 21.4257 13.5222C21.9393 13.0108 22.5936 12.6625 23.3058 12.5214C24.0181 12.3803 24.7565 12.4528 25.4274 12.7295C26.0984 13.0063 26.6719 13.4749 27.0754 14.0763C27.4789 14.6776 27.6942 15.3845 27.6942 16.1077C27.6942 17.0775 27.3073 18.0076 26.6187 18.6933C25.9301 19.3791 24.9961 19.7643 24.0222 19.7643Z" fill="#78BE13"/>
<path d="M50.2518 19.0933H31.1662C30.9324 19.0906 30.7092 18.9962 30.5448 18.8306C30.3804 18.665 30.2883 18.4416 30.2883 18.2088C30.2883 17.9759 30.3804 17.7525 30.5448 17.5869C30.7092 17.4213 30.9324 17.3269 31.1662 17.3242H50.2518C50.4856 17.3269 50.7088 17.4213 50.8732 17.5869C51.0375 17.7525 51.1297 17.9759 51.1297 18.2088C51.1297 18.4416 51.0375 18.665 50.8732 18.8306C50.7088 18.9962 50.4856 19.0906 50.2518 19.0933Z" fill="#E6E6E6"/>
<path d="M37.483 15.3345H31.1662C30.9324 15.3318 30.7092 15.2374 30.5448 15.0718C30.3804 14.9062 30.2883 14.6828 30.2883 14.45C30.2883 14.2171 30.3804 13.9937 30.5448 13.8281C30.7092 13.6625 30.9324 13.5681 31.1662 13.5654H37.483C37.7186 13.5654 37.9445 13.6586 38.1111 13.8245C38.2777 13.9904 38.3713 14.2154 38.3713 14.45C38.3713 14.6846 38.2777 14.9096 38.1111 15.0755C37.9445 15.2414 37.7186 15.3346 37.483 15.3346V15.3345Z" fill="#E6E6E6"/>
<path d="M23.8347 17.3942C23.7436 17.3943 23.6549 17.365 23.582 17.3105L23.5775 17.3072L22.6258 16.5821C22.5368 16.5142 22.4785 16.4138 22.4638 16.3031C22.4491 16.1923 22.4792 16.0803 22.5475 15.9917C22.6157 15.903 22.7165 15.845 22.8277 15.8304C22.9389 15.8158 23.0514 15.8457 23.1404 15.9137L23.7569 16.3844L25.2136 14.492C25.2818 14.4034 25.3826 14.3454 25.4937 14.3308C25.6049 14.3162 25.7173 14.3461 25.8063 14.414L25.7972 14.4261L25.8065 14.414C25.8954 14.482 25.9536 14.5824 25.9682 14.6931C25.9829 14.8038 25.9528 14.9157 25.8847 15.0044L24.1716 17.229C24.1319 17.2802 24.081 17.3217 24.0226 17.3502C23.9643 17.3787 23.9002 17.3934 23.8352 17.3932L23.8347 17.3942Z" fill="white"/>
<path d="M41.9628 25.4717L41.7638 25.4933C41.8056 25.8743 41.8608 26.2586 41.9265 26.6355L42.1237 26.6011C42.0583 26.2285 42.0041 25.8485 41.9628 25.4717ZM42.3575 27.718L42.1629 27.765C42.2536 28.1372 42.3576 28.5114 42.4721 28.8768L42.6633 28.8175C42.5499 28.456 42.447 28.086 42.3575 27.718ZM43.0404 29.8961L42.8536 29.9678C42.9919 30.3255 43.1437 30.6833 43.3051 31.0316L43.4869 30.948C43.3273 30.6036 43.1767 30.2498 43.0404 29.8961ZM44.0004 31.9688L43.8245 32.0638C44.0077 32.4004 44.2046 32.7357 44.4096 33.0604L44.5793 32.9543C44.3767 32.6332 44.1819 32.3017 44.0007 31.9688H44.0004ZM45.22 33.9006L45.0577 34.0173C45.2829 34.3278 45.5212 34.6353 45.7661 34.9307L45.9205 34.8039C45.6786 34.5115 45.4433 34.2074 45.2202 33.9004L45.22 33.9006ZM46.6774 35.6607L46.532 35.7971C46.795 36.0763 47.0706 36.3508 47.3514 36.6129L47.4883 36.4681C47.2104 36.2081 46.9377 35.9366 46.6776 35.6606L46.6774 35.6607ZM48.3481 37.221L48.2207 37.3748C48.5174 37.6185 48.826 37.8556 49.1376 38.0796L49.2548 37.918C48.9466 37.6964 48.6415 37.4618 48.3481 37.2209V37.221ZM50.2045 38.5558L50.0979 38.7248C50.4235 38.9286 50.7599 39.1244 51.0977 39.3068L51.1931 39.1315C50.8591 38.9512 50.5264 38.7573 50.2045 38.5558ZM52.2165 39.6421L52.1327 39.8231C52.4815 39.9834 52.8403 40.1344 53.1993 40.272L53.2713 40.086C52.9164 39.95 52.5617 39.8007 52.2168 39.6421H52.2165ZM54.3512 40.461L54.2915 40.6514C54.6584 40.7656 55.034 40.8694 55.4079 40.9598L55.4552 40.7666C55.0858 40.6768 54.7143 40.574 54.3515 40.461H54.3512ZM56.5766 40.9992L56.5421 41.1956C56.9205 41.2616 57.3063 41.3163 57.6891 41.3581L57.7109 41.1599C57.3325 41.1186 56.9508 41.0645 56.5767 40.9992H56.5766Z" fill="#78BE13"/>
<path d="M42.5972 24.3791L42.4542 24.5187L41.7642 23.8161L41.1105 24.5524L40.9604 24.4196L41.7568 23.5225L42.5972 24.3791Z" fill="#78BE13"/>
<path d="M58.8147 40.5283L58.6745 40.6707L59.3803 41.3579L58.6409 42.0088L58.7743 42.1582L59.6752 41.3652L58.8147 40.5283Z" fill="#78BE13"/>
</g>
<defs>
<clipPath id="clip0_2337_22654">
<rect width="97" height="75" fill="white" transform="translate(0 4)"/>
</clipPath>
</defs>
</svg>
