<svg width="108" height="83" viewBox="0 0 108 83" fill="none" xmlns="http://www.w3.org/2000/svg">
<path d="M10.3084 82.7884C10.3039 82.8396 10.3198 82.8905 10.3527 82.93C10.3855 82.9696 10.4326 82.9946 10.4838 82.9996H97.9251C97.9747 82.9907 98.0196 82.9647 98.0519 82.9261C98.0842 82.8875 98.1019 82.8387 98.1019 82.7884C98.1019 82.738 98.0842 82.6893 98.0519 82.6507C98.0196 82.612 97.9747 82.586 97.9251 82.5771H10.4838C10.4326 82.5822 10.3855 82.6072 10.3527 82.6467C10.3198 82.6863 10.3039 82.7372 10.3084 82.7884Z" fill="#D6D6E3"/>
<path d="M57.2938 61.9473C57.1667 62.8238 56.7281 63.6253 56.0583 64.2049C55.3886 64.7846 54.5325 65.1036 53.6467 65.1036C52.761 65.1036 51.9049 64.7846 51.2351 64.2049C50.5654 63.6253 50.1268 62.8238 49.9996 61.9473H40.6689V82.5784H66.6245V61.9473H57.2938Z" fill="#D6D6E3"/>
<path d="M105.846 62.4745H1.44698C1.06333 62.4741 0.695517 62.3215 0.424241 62.0503C0.152965 61.779 0.000390548 61.4112 0 61.0275L0 1.44698C0.000390548 1.06333 0.152965 0.695517 0.424241 0.424241C0.695517 0.152965 1.06333 0.000390548 1.44698 0H105.846C106.23 0.000497025 106.597 0.153118 106.869 0.424383C107.14 0.695647 107.292 1.0634 107.293 1.44698V61.0275C107.292 61.4112 107.14 61.779 106.868 62.0503C106.597 62.3215 106.229 62.4741 105.846 62.4745H105.846Z" fill="#090814"/>
<path d="M104.857 2.41504H2.69434V60.0606H104.857V2.41504Z" fill="white"/>
<path d="M5.4578 41.0351L7.60875 40.9131L7.45049 43.001H5.26172L5.4578 41.0351Z" fill="#ED9DA0"/>
<path d="M18.1634 41.4401C18.7466 40.9581 19.4682 40.8684 19.7748 41.2398C20.0814 41.6111 19.8571 42.3025 19.2736 42.7847C19.0431 42.9804 18.7691 43.1182 18.4745 43.1863L15.9773 45.1973L15.0586 44.0052L17.6179 42.1494C17.7404 41.8728 17.9276 41.6296 18.1634 41.4401Z" fill="#ED9DA0"/>
<path d="M3.72959 45.9771C3.72838 45.8882 3.72959 45.1125 4.30347 44.6225C4.96319 44.0593 5.89408 44.2873 6.22052 44.3677C6.97479 44.5524 7.03662 44.876 7.74488 45.2084C9.07008 45.8303 7.40959 45.512 8.19819 45.3126C8.47112 45.2435 12.3976 44.9712 13.3751 44.3696C15.276 43.1996 16.5712 42.4902 16.5712 42.4902L17.4184 44.1828C16.5781 45.3027 15.5861 46.3002 14.4709 47.1467C12.7034 48.4404 11.8196 49.0873 10.4766 49.3371C10.3609 49.3586 7.51635 49.8443 5.22525 48.1326C4.7022 47.7422 3.74515 47.0268 3.73026 45.9774L3.72959 45.9771Z" fill="#78BE13"/>
<path d="M6.35684 41.9578C7.98586 41.9578 9.30644 40.6372 9.30644 39.0082C9.30644 37.3792 7.98586 36.0586 6.35684 36.0586C4.72781 36.0586 3.40723 37.3792 3.40723 39.0082C3.40723 40.6372 4.72781 41.9578 6.35684 41.9578Z" fill="#ED9DA0"/>
<path d="M29.4563 58.5371L26.4187 55.4277L24.8506 57.0639L27.1138 60.0453L29.3586 60.302L29.4563 58.5371Z" fill="#ED9DA0"/>
<path d="M12.1109 52.7066C12.2886 52.7214 12.8532 52.8344 13.3928 52.5376C13.6465 52.3926 13.86 52.1864 14.0137 51.9379C14.805 50.7492 17.843 48.8956 20.5694 48.7815C21.1864 48.7556 21.5933 48.8272 21.9626 49.0197C22.4863 49.2927 22.6954 49.6838 23.3601 50.5999C23.7237 51.1011 24.1259 51.5732 24.4939 52.0712C26.6481 54.9863 27.4647 55.2153 27.3813 56.1498C27.2886 57.1868 26.1704 58.1705 25.4271 58.0569C25.1227 58.0104 25.0048 57.7987 24.5981 57.3702C23.4057 56.1138 22.9123 56.346 22.0633 55.3837C21.0721 54.2602 21.2019 53.3287 20.6848 53.2927C20.2052 53.2593 20.0008 54.0541 18.9776 55.1097C18.5091 55.5925 18.1756 55.8144 17.1591 56.5194C13.2014 59.2653 13.1382 59.4588 12.3395 59.6772C11.99 59.7729 9.5097 60.453 8.62615 59.3709C7.24341 57.6774 10.5099 52.5736 12.1109 52.7066Z" fill="#090814"/>
<path d="M28.5269 59.2398C28.7504 59.1395 29.0116 59.0222 29.0956 58.7525C29.124 58.6576 29.1303 58.5576 29.114 58.4599C29.0977 58.3623 29.0593 58.2697 29.0017 58.1892C28.8661 58.0097 28.6653 57.9861 28.6734 57.9543C28.6857 57.9061 29.1605 57.9248 29.6815 58.1091C30.0834 58.2619 30.4583 58.4779 30.792 58.7491C31.246 59.1036 31.185 59.1747 31.4697 59.3794C32.3436 60.0068 33.1633 59.5124 33.6362 60.1007C33.7274 60.2124 33.7914 60.3436 33.8233 60.4842C33.8551 60.6247 33.8539 60.7708 33.8198 60.9108C33.6656 61.4338 32.9155 61.6144 32.5055 61.7074C31.5183 61.9314 30.771 61.7486 29.9905 61.617C27.3368 61.1699 25.8464 61.5768 25.6463 60.9623C25.6084 60.8459 25.6699 60.8558 25.8743 60.002C26.0762 59.1592 26.0695 58.9279 26.2416 58.8603C26.5004 58.7588 26.6744 59.2208 27.3265 59.3789C27.7306 59.4682 28.153 59.4193 28.526 59.24L28.5269 59.2398Z" fill="#090814"/>
<path d="M24.0558 68.7099L23.2884 64.4316L21.0723 64.9044L21.2708 68.6422L22.9845 70.1149L24.0558 68.7099Z" fill="#ED9DA0"/>
<path d="M12.978 54.1452C13.1167 54.2572 13.5204 54.6683 14.1337 54.7253C14.4251 54.7478 14.7175 54.6971 14.9843 54.5778C16.3066 54.0386 19.8612 54.2107 22.1812 55.6472C22.7065 55.9726 23.0026 56.26 23.2005 56.6262C23.4805 57.1462 23.434 57.5873 23.4695 58.7185C23.4889 59.3373 23.5567 59.9538 23.5815 60.5725C23.727 64.1943 24.2742 64.8422 23.6803 65.5687C23.0214 66.3747 21.5436 66.5611 20.9924 66.0494C20.7667 65.84 20.788 65.5986 20.6921 65.0157C20.4104 63.3065 19.8724 63.2215 19.7102 61.9486C19.521 60.4624 20.1515 59.7644 19.7438 59.4443C19.3657 59.1474 18.7513 59.6905 17.3108 59.9892C16.6518 60.1259 16.2512 60.1218 15.0144 60.1346C10.1977 60.1841 10.037 60.3089 9.25322 60.0407C8.91028 59.9237 6.47608 59.0936 6.35256 57.702C6.15943 55.5243 11.7282 53.1355 12.9779 54.1444L12.978 54.1452Z" fill="#090814"/>
<path d="M22.8927 68.7698C23.1341 68.8122 23.4158 68.8619 23.6369 68.6859C23.7137 68.6234 23.7751 68.5442 23.8165 68.4544C23.8579 68.3645 23.8782 68.2664 23.8758 68.1675C23.8643 67.9428 23.7115 67.8106 23.7361 67.7889C23.7735 67.7559 24.1556 68.0381 24.4833 68.4831C24.7302 68.8352 24.919 69.2246 25.0429 69.6365C25.2195 70.1847 25.1291 70.2091 25.2498 70.5381C25.6206 71.548 26.5766 71.5991 26.6375 72.3515C26.6502 72.4951 26.6295 72.6397 26.5769 72.7739C26.5243 72.9081 26.4413 73.0282 26.3344 73.1249C25.9129 73.4715 25.1911 73.1994 24.7996 73.0461C23.8569 72.677 23.3412 72.1061 22.7693 71.5591C20.8247 69.699 19.3628 69.1987 19.5423 68.578C19.5763 68.4605 19.6215 68.5032 20.2704 67.9116C20.9108 67.3277 21.0348 67.1324 21.2153 67.1732C21.4867 67.2344 21.3709 67.7144 21.8218 68.2115C22.1061 68.5123 22.4831 68.709 22.8925 68.7701L22.8927 68.7698Z" fill="#090814"/>
<path d="M6.75891 39.5713C6.87371 39.1605 6.72953 39.0109 6.87653 38.8264C6.87653 38.8264 6.93567 38.7523 7.46449 38.5521C7.30851 37.6468 7.42533 37.4936 7.42533 37.4936C7.49999 37.4156 7.59257 37.3569 7.69503 37.3228C7.79749 37.2886 7.90674 37.28 8.01329 37.2977C8.40223 37.3465 8.47036 37.6976 8.71887 37.6897C9.06221 37.6788 9.47395 36.9923 9.34613 36.396C9.24193 35.9102 8.79237 35.5493 8.67971 35.612C8.56706 35.6746 8.16578 35.4003 8.01329 35.4552C7.90908 35.4926 7.41889 35.4428 7.30771 35.4943C7.18633 35.5507 6.8383 35.9014 6.80544 35.8571C6.5745 35.5501 6.57932 35.4428 6.44534 35.3767C6.20782 35.2595 5.94911 35.4762 5.50452 35.6903C4.58851 36.1309 4.32041 35.868 3.89728 36.2391C3.6835 36.4269 3.56896 36.7848 3.34847 37.4935C3.04001 38.4847 2.88591 38.9803 3.03491 39.4536C3.18673 39.9364 3.41044 39.8311 3.7405 40.512C4.10797 41.2699 3.9819 41.7105 4.32846 41.884C4.59669 42.0181 5.02801 41.9328 5.19082 41.6881C5.46965 41.269 4.74905 40.7021 4.99488 40.0417C5.14576 39.6362 5.61114 39.3288 5.89654 39.4144C6.21922 39.5112 6.24296 40.0898 6.44534 40.0808C6.61862 40.0732 6.73892 39.6429 6.75891 39.5713Z" fill="#090814"/>
<path d="M4.52396 42.1076C5.12748 41.4308 7.58609 42.1313 7.81691 43.2052C7.91186 43.647 7.56208 43.8334 7.66012 44.3419C7.80443 45.0859 8.6216 45.0352 9.22821 45.7924C10.0894 46.8675 9.20219 47.9184 10.169 49.7125C10.3756 50.0959 10.5498 50.419 10.9139 50.7318C11.7494 51.4494 12.5269 51.2033 12.9525 51.8687C13.2706 52.3662 13.1402 52.9794 13.1092 53.123C12.9837 53.7121 12.6435 53.8556 12.4037 54.3383C12.0047 55.1413 12.4564 55.7309 12.4821 56.6904C12.5142 57.8909 11.8763 59.5548 10.6005 60.1008C9.16718 60.7143 7.43843 59.6985 6.60195 58.6895C6.10277 58.0876 5.95819 57.5324 5.73958 56.847C4.76362 53.7842 4.21227 54.0612 3.46592 51.6333C2.61267 48.8571 2.44503 45.606 3.46592 44.577C3.78512 44.2953 4.03928 43.9475 4.2108 43.5578C4.52986 42.7933 4.25425 42.4103 4.52436 42.1073L4.52396 42.1076Z" fill="#78BE13"/>
<path d="M13.4431 57.862C13.9111 58.4565 13.9836 59.1799 13.6051 59.4777C13.2267 59.7754 12.5407 59.5348 12.0726 58.9399C11.8824 58.7048 11.7512 58.4276 11.6901 58.1314L9.73926 55.5872L10.7474 54.8184L12.7472 57.2995C13.0208 57.4287 13.2594 57.6216 13.4431 57.862Z" fill="#ED9DA0"/>
<path d="M6.29756 44.6869C6.38433 44.6675 7.14396 44.51 7.74105 44.9722C8.42705 45.5032 8.39379 46.4609 8.38212 46.7968C8.3553 47.5728 8.05112 47.6994 7.8702 48.4607C7.53169 49.8849 8.17639 51.2083 8.53246 51.9395C8.87239 52.6222 9.31321 53.2498 9.84009 53.8012C10.7083 54.7357 11.6818 55.5665 12.7413 56.2769L11.2716 57.5832C11.2716 57.5832 8.93065 56.8697 7.34447 55.4402C5.71751 53.9738 3.21531 48.7856 2.69655 47.5219C2.65189 47.413 3.28465 49.1825 4.49276 46.5903C4.76837 45.999 5.27331 44.9157 6.29756 44.6869Z" fill="#78BE13"/>
<path d="M26.409 44.9768C26.39 44.9768 26.371 44.9762 26.352 44.9749C24.8596 44.8659 23.4169 44.391 22.1515 43.5923C20.8861 42.7936 19.8368 41.6955 19.0963 40.3952C19.0042 40.2343 18.9636 40.0489 18.9802 39.8643C18.9967 39.6796 19.0696 39.5044 19.1889 39.3625L23.435 34.3034C23.5231 34.2007 23.6326 34.1185 23.7559 34.0627C23.8792 34.007 24.0132 33.9789 24.1485 33.9805C24.3362 33.985 24.7808 34.0324 24.8671 34.3751C25.3767 36.4003 27.531 38.7804 30.1213 39.096C30.3839 39.1279 30.5946 39.3621 30.6846 39.7226C30.7197 39.8596 30.7218 40.0029 30.6906 40.1408C30.6595 40.2788 30.5961 40.4074 30.5056 40.516L27.1041 44.6468C27.0198 44.7499 26.9137 44.833 26.7933 44.89C26.673 44.9471 26.5415 44.9768 26.4083 44.9768H26.409ZM24.1322 34.1843C24.0293 34.1844 23.9276 34.2068 23.8342 34.25C23.7407 34.2931 23.6577 34.3561 23.591 34.4344L19.3453 39.4931C19.2528 39.6029 19.1963 39.7385 19.1833 39.8815C19.1704 40.0245 19.2016 40.168 19.2728 40.2927C19.9965 41.5641 21.0221 42.6378 22.2591 43.4189C23.4961 44.2 24.9064 44.6644 26.3654 44.7712C26.4758 44.7782 26.5862 44.7588 26.6875 44.7144C26.7889 44.6701 26.8781 44.6022 26.9479 44.5164L30.3495 40.3856C30.4195 40.3015 30.4687 40.202 30.4928 40.0951C30.5169 39.9883 30.5153 39.8773 30.4881 39.7713C30.4345 39.5585 30.304 39.3224 30.097 39.2972C27.4212 38.9713 25.1965 36.5138 24.6699 34.4241C24.6273 34.2548 24.3706 34.1887 24.1445 34.1833H24.1324L24.1322 34.1843Z" fill="#3F3D56"/>
<path d="M21.6697 40.5611L24.7309 37.4394C24.9401 37.2261 24.6124 36.8977 24.4029 37.1114L21.3415 40.2331C21.1323 40.4464 21.4602 40.7748 21.6697 40.5611Z" fill="#E6E6E6"/>
<path d="M23.5165 41.4404C24.3615 40.6816 25.0954 39.8076 25.6967 38.8441C25.8553 38.5901 25.4541 38.357 25.2961 38.61C24.7147 39.539 24.0052 40.3814 23.1884 41.1122C22.9657 41.3119 23.2947 41.6392 23.5165 41.4404Z" fill="#E6E6E6"/>
<path d="M25.1823 42.4932C25.9527 41.6415 26.605 40.69 27.1217 39.6643C27.2559 39.3982 26.8554 39.163 26.7211 39.4302C26.2244 40.4215 25.5964 41.3414 24.8542 42.1652C24.6545 42.3863 24.9818 42.7151 25.1823 42.4932Z" fill="#E6E6E6"/>
<path d="M23.8706 36.8738C25.5752 36.8738 26.957 35.5211 26.957 33.8524C26.957 32.1838 25.5752 30.8311 23.8706 30.8311C22.166 30.8311 20.7842 32.1838 20.7842 33.8524C20.7842 35.5211 22.166 36.8738 23.8706 36.8738Z" fill="#78BE13"/>
<path d="M25.4763 35.286L24.0524 31.7849C24.0414 31.7491 24.0191 31.7177 23.989 31.6954C23.9588 31.6732 23.9223 31.6611 23.8848 31.6611C23.8473 31.6611 23.8107 31.6732 23.7806 31.6954C23.7504 31.7177 23.7282 31.7491 23.7171 31.7849C23.2499 33.0081 22.9398 34.2857 22.7943 35.5869C22.7692 35.8086 23.1161 35.8069 23.1416 35.5869C23.1998 35.0777 23.2843 34.5719 23.3948 34.0714C23.7868 34.0916 24.1795 34.0485 24.5578 33.9436L25.1412 35.3787C25.2246 35.5827 25.5607 35.4933 25.4763 35.286ZM23.4738 33.7284C23.5908 33.2495 23.7308 32.777 23.8937 32.3108L24.4261 33.6195C24.1155 33.7012 23.7948 33.7378 23.4738 33.7284Z" fill="white"/>
<path d="M76.7144 21.8613H56.8652C56.4208 21.8613 56.0605 22.2216 56.0605 22.666C56.0605 23.1104 56.4208 23.4707 56.8652 23.4707H76.7144C77.1588 23.4707 77.5191 23.1104 77.5191 22.666C77.5191 22.2216 77.1588 21.8613 76.7144 21.8613Z" fill="#090814"/>
<path d="M80.6034 26.6895H52.9756C52.5312 26.6895 52.1709 27.0497 52.1709 27.4941C52.1709 27.9386 52.5312 28.2988 52.9756 28.2988H80.6034C81.0479 28.2988 81.4081 27.9386 81.4081 27.4941C81.4081 27.0497 81.0479 26.6895 80.6034 26.6895Z" fill="#F2F2F2"/>
<path d="M80.6034 29.9082H52.9756C52.5312 29.9082 52.1709 30.2685 52.1709 30.7129C52.1709 31.1573 52.5312 31.5176 52.9756 31.5176H80.6034C81.0479 31.5176 81.4081 31.1573 81.4081 30.7129C81.4081 30.2685 81.0479 29.9082 80.6034 29.9082Z" fill="#F2F2F2"/>
<path d="M57.8153 41.3095L56.0605 40.478C56.7802 41.4824 57.4004 43.051 57.7324 44.2993C58.2945 43.1366 59.2007 41.7139 60.0977 40.8641L58.2431 41.3412C59.386 35.7405 63.6841 31.7198 68.6063 31.7198L68.676 31.5176C63.5347 31.5178 58.982 35.4827 57.8153 41.3095Z" fill="#3F3D56"/>
<path d="M65.3142 44.2578H52.9756C52.5312 44.2578 52.1709 44.6181 52.1709 45.0625C52.1709 45.5069 52.5312 45.8672 52.9756 45.8672H65.3142C65.7587 45.8672 66.1189 45.5069 66.1189 45.0625C66.1189 44.6181 65.7587 44.2578 65.3142 44.2578Z" fill="#78BE13"/>
<path d="M80.6033 44.2578H68.2647C67.8202 44.2578 67.46 44.6181 67.46 45.0625C67.46 45.5069 67.8202 45.8672 68.2647 45.8672H80.6033C81.0477 45.8672 81.408 45.5069 81.408 45.0625C81.408 44.6181 81.0477 44.2578 80.6033 44.2578Z" fill="#D6D6E3"/>
<path d="M65.3142 47.4775H52.9756C52.5312 47.4775 52.1709 47.8378 52.1709 48.2822C52.1709 48.7267 52.5312 49.0869 52.9756 49.0869H65.3142C65.7587 49.0869 66.1189 48.7267 66.1189 48.2822C66.1189 47.8378 65.7587 47.4775 65.3142 47.4775Z" fill="#D6D6E3"/>
<path d="M80.6033 47.4775H68.2647C67.8202 47.4775 67.46 47.8378 67.46 48.2822C67.46 48.7267 67.8202 49.0869 68.2647 49.0869H80.6033C81.0477 49.0869 81.408 48.7267 81.408 48.2822C81.408 47.8378 81.0477 47.4775 80.6033 47.4775Z" fill="#D6D6E3"/>
<path d="M66.6599 18.643C69.0301 18.643 70.9516 16.7215 70.9516 14.3513C70.9516 11.981 69.0301 10.0596 66.6599 10.0596C64.2896 10.0596 62.3682 11.981 62.3682 14.3513C62.3682 16.7215 64.2896 18.643 66.6599 18.643Z" fill="#78BE13"/>
<path d="M66.5762 17.3048C66.8551 17.3048 67.0812 17.0787 67.0812 16.7999C67.0812 16.521 66.8551 16.2949 66.5762 16.2949C66.2974 16.2949 66.0713 16.521 66.0713 16.7999C66.0713 17.0787 66.2974 17.3048 66.5762 17.3048Z" fill="white"/>
<path d="M66.5227 11.53C66.1421 11.5339 65.778 11.6861 65.5079 11.9543C65.2377 12.2225 65.0829 12.5855 65.0762 12.9661C65.0762 12.9733 65.0762 13.0246 65.0762 13.0916C65.0762 13.1899 65.1152 13.2841 65.1847 13.3535C65.2541 13.423 65.3484 13.462 65.4466 13.462C65.4953 13.462 65.5435 13.4524 65.5884 13.4338C65.6334 13.4151 65.6743 13.3878 65.7087 13.3534C65.7431 13.3189 65.7704 13.2781 65.789 13.2331C65.8076 13.1881 65.8172 13.1399 65.8172 13.0912C65.8172 13.0456 65.8172 13.0141 65.8172 13.0121C65.8171 12.8901 65.8488 12.7702 65.9092 12.6642C65.9695 12.5582 66.0564 12.4697 66.1613 12.4075C66.2663 12.3453 66.3856 12.3114 66.5075 12.3093C66.6295 12.3071 66.7499 12.3368 66.8569 12.3953C66.9639 12.4539 67.0539 12.5392 67.1179 12.6431C67.1819 12.7469 67.2178 12.8656 67.222 12.9875C67.2262 13.1094 67.1986 13.2304 67.1419 13.3384C67.0852 13.4464 67.0014 13.5378 66.8987 13.6035C66.8987 13.6035 66.3715 13.943 66.2107 14.4082C66.1824 14.5036 66.1681 14.6026 66.1681 14.7021C66.1681 14.7423 66.1705 15.1008 66.1752 15.3913C66.1769 15.4915 66.2179 15.587 66.2893 15.6573C66.3608 15.7275 66.457 15.7669 66.5572 15.7668C66.6585 15.7668 66.7557 15.7266 66.8273 15.6549C66.8989 15.5833 66.9392 15.4862 66.9392 15.3849V15.3824C66.9376 15.1165 66.9366 14.8067 66.9366 14.7843C66.9366 14.4984 67.2125 14.2135 67.439 14.0277C67.7013 13.8153 67.8856 13.5219 67.963 13.1934C67.9795 13.1257 67.9885 13.0563 67.9898 12.9866C67.9898 12.6001 67.8363 12.2294 67.563 11.9561C67.2897 11.6828 66.919 11.5293 66.5325 11.5293L66.5227 11.53Z" fill="white"/>
</svg>
