<svg width="84" height="83" viewBox="0 0 84 83" fill="none" xmlns="http://www.w3.org/2000/svg">
<g clip-path="url(#clip0_2887_42658)">
<path d="M43.0192 3.97012L40.286 4.67496L6.61226 13.3587L3.87905 14.0636C2.55238 14.4073 1.41622 15.2632 0.719844 16.4436C0.023464 17.624 -0.17627 19.0323 0.16446 20.3598L12.0163 66.3185C12.36 67.6451 13.2159 68.7813 14.3963 69.4777C15.5766 70.1741 16.985 70.3738 18.3124 70.0331L18.3195 70.0312L57.4455 59.9414L57.4526 59.9396C58.7793 59.5959 59.9154 58.74 60.6118 57.5596C61.3082 56.3792 61.5079 54.9708 61.1672 53.6434L49.3154 7.68473C48.9717 6.35806 48.1157 5.2219 46.9354 4.52552C45.755 3.82913 44.3466 3.62939 43.0192 3.97012Z" fill="#F2F2F2"/>
<path d="M43.3904 5.41064L40.1531 6.24547L7.48749 14.6693L4.25024 15.5041C3.30549 15.7489 2.4964 16.3584 2.00049 17.199C1.50458 18.0395 1.36234 19.0425 1.60498 19.9878L13.4568 65.9465C13.7016 66.8912 14.3111 67.7003 15.1516 68.1962C15.9922 68.6921 16.9951 68.8343 17.9404 68.5917L17.9475 68.5899L57.0735 58.5001L57.0806 58.4982C58.0254 58.2535 58.8344 57.6439 59.3303 56.8034C59.8262 55.9628 59.9685 54.9599 59.7258 54.0146L47.874 8.0559C47.6293 7.11116 47.0198 6.30208 46.1792 5.80616C45.3387 5.31025 44.3357 5.16801 43.3904 5.41064Z" fill="white"/>
<path d="M40.9468 20.2938L21.1539 25.398C20.9328 25.455 20.6982 25.4218 20.5015 25.3058C20.3049 25.1898 20.1624 25.0004 20.1054 24.7794C20.0484 24.5583 20.0815 24.3236 20.1975 24.127C20.3135 23.9304 20.5029 23.7879 20.724 23.7309L40.5169 18.6267C40.7379 18.5699 40.9724 18.6032 41.1688 18.7192C41.3653 18.8352 41.5076 19.0245 41.5646 19.2455C41.6216 19.4664 41.5885 19.7009 41.4727 19.8975C41.3568 20.0941 41.1677 20.2366 40.9468 20.2938Z" fill="#F2F2F2"/>
<path d="M45.1097 22.2197L21.8785 28.2106C21.6574 28.2676 21.4228 28.2345 21.2261 28.1185C21.0295 28.0024 20.887 27.8131 20.83 27.592C20.773 27.371 20.8061 27.1363 20.9221 26.9397C21.0382 26.743 21.2275 26.6005 21.4486 26.5435L44.6798 20.5527C44.9009 20.4957 45.1355 20.5288 45.3322 20.6448C45.5288 20.7608 45.6713 20.9502 45.7283 21.1712C45.7853 21.3923 45.7522 21.627 45.6362 21.8236C45.5202 22.0202 45.3308 22.1627 45.1097 22.2197Z" fill="#F2F2F2"/>
<path d="M44.1978 32.9004L24.4049 38.0046C24.2954 38.0328 24.1814 38.0392 24.0695 38.0234C23.9576 38.0076 23.8499 37.9699 23.7525 37.9124C23.6551 37.855 23.57 37.779 23.5021 37.6886C23.4341 37.5983 23.3846 37.4955 23.3564 37.386C23.3281 37.2765 23.3218 37.1626 23.3376 37.0507C23.3534 36.9387 23.3911 36.831 23.4485 36.7337C23.506 36.6363 23.582 36.5512 23.6723 36.4832C23.7627 36.4153 23.8655 36.3657 23.975 36.3375L43.7679 31.2333C43.8773 31.2051 43.9913 31.1987 44.1032 31.2145C44.2151 31.2303 44.3229 31.268 44.4202 31.3255C44.5176 31.3829 44.6027 31.459 44.6706 31.5493C44.7386 31.6396 44.7881 31.7424 44.8164 31.8519C44.8446 31.9614 44.851 32.0753 44.8352 32.1872C44.8194 32.2992 44.7817 32.4069 44.7242 32.5043C44.6668 32.6016 44.5907 32.6867 44.5004 32.7547C44.4101 32.8227 44.3072 32.8722 44.1978 32.9004Z" fill="#F2F2F2"/>
<path d="M48.3617 34.8272L25.1304 40.818C25.021 40.8462 24.907 40.8526 24.7951 40.8368C24.6832 40.821 24.5754 40.7833 24.4781 40.7259C24.3807 40.6684 24.2956 40.5924 24.2277 40.5021C24.1597 40.4117 24.1102 40.3089 24.082 40.1994C24.0537 40.09 24.0473 39.976 24.0631 39.8641C24.079 39.7522 24.1167 39.6444 24.1741 39.5471C24.2315 39.4497 24.3076 39.3646 24.3979 39.2967C24.4882 39.2287 24.5911 39.1792 24.7005 39.151L47.9318 33.1601C48.1528 33.1031 48.3875 33.1362 48.5841 33.2522C48.7807 33.3682 48.9232 33.5576 48.9802 33.7787C49.0373 33.9997 49.0041 34.2344 48.8881 34.431C48.7721 34.6277 48.5827 34.7701 48.3617 34.8272Z" fill="#F2F2F2"/>
<path d="M47.4482 45.5078L27.6553 50.612C27.4343 50.6688 27.1997 50.6356 27.0032 50.5196C26.8067 50.4035 26.6643 50.2142 26.6074 49.9933C26.5504 49.7723 26.5835 49.5378 26.6993 49.3412C26.8152 49.1446 27.0044 49.0021 27.2254 48.9449L47.0183 43.8407C47.2393 43.7837 47.474 43.8169 47.6706 43.9329C47.8672 44.0489 48.0097 44.2383 48.0667 44.4593C48.1237 44.6804 48.0906 44.9151 47.9746 45.1117C47.8586 45.3083 47.6692 45.4508 47.4482 45.5078Z" fill="#F2F2F2"/>
<path d="M51.6124 47.4346L28.3812 53.4254C28.2717 53.4538 28.1577 53.4603 28.0457 53.4445C27.9337 53.4288 27.8259 53.3911 27.7284 53.3337C27.631 53.2763 27.5458 53.2002 27.4778 53.1098C27.4098 53.0195 27.3602 52.9166 27.332 52.8071C27.3037 52.6975 27.2973 52.5835 27.3132 52.4715C27.329 52.3595 27.3668 52.2518 27.4243 52.1544C27.4818 52.057 27.558 51.9719 27.6484 51.9039C27.7388 51.836 27.8417 51.7865 27.9513 51.7584L51.1825 45.7675C51.4036 45.7105 51.6383 45.7436 51.8349 45.8597C52.0315 45.9757 52.174 46.165 52.231 46.3861C52.288 46.6072 52.2549 46.8418 52.1389 47.0384C52.0229 47.2351 51.8335 47.3776 51.6124 47.4346Z" fill="#F2F2F2"/>
<path d="M17.7746 30.6313L10.7701 32.4377C10.6641 32.4649 10.5516 32.4489 10.4574 32.3933C10.3631 32.3377 10.2948 32.247 10.2673 32.141L8.65946 25.906C8.63225 25.8 8.6482 25.6876 8.70381 25.5933C8.75941 25.4991 8.85014 25.4307 8.95607 25.4033L15.9606 23.597C16.0666 23.5698 16.179 23.5857 16.2733 23.6413C16.3676 23.6969 16.4359 23.7876 16.4633 23.8936L18.0712 30.1286C18.0984 30.2346 18.0825 30.347 18.0269 30.4413C17.9713 30.5355 17.8805 30.6039 17.7746 30.6313Z" fill="#E6E6E6"/>
<path d="M21.0256 43.2387L14.0211 45.0451C13.9151 45.0723 13.8026 45.0563 13.7084 45.0007C13.6141 44.9451 13.5458 44.8544 13.5183 44.7485L11.9104 38.5135C11.8832 38.4075 11.8992 38.295 11.9548 38.2008C12.0104 38.1065 12.1011 38.0382 12.207 38.0107L19.2116 36.2044C19.3176 36.1772 19.43 36.1931 19.5243 36.2487C19.6185 36.3043 19.6869 36.3951 19.7143 36.501L21.3222 42.736C21.3494 42.842 21.3335 42.9545 21.2779 43.0487C21.2223 43.143 21.1315 43.2113 21.0256 43.2387Z" fill="#E6E6E6"/>
<path d="M24.2766 55.8462L17.272 57.6525C17.1661 57.6797 17.0536 57.6638 16.9593 57.6082C16.8651 57.5525 16.7967 57.4618 16.7693 57.3559L15.1614 51.1209C15.1342 51.0149 15.1502 50.9024 15.2058 50.8082C15.2614 50.7139 15.3521 50.6456 15.458 50.6181L22.4626 48.8118C22.5685 48.7846 22.681 48.8005 22.7753 48.8562C22.8695 48.9118 22.9379 49.0025 22.9653 49.1084L24.5732 55.3434C24.6004 55.4494 24.5844 55.5619 24.5288 55.6561C24.4732 55.7504 24.3825 55.8187 24.2766 55.8462Z" fill="#E6E6E6"/>
<path d="M70.3173 15.6201H29.8967C28.5262 15.6217 27.2123 16.1668 26.2432 17.1358C25.2742 18.1049 24.7291 19.4188 24.7275 20.7893V68.2515C24.7291 69.622 25.2742 70.9359 26.2432 71.905C27.2123 72.874 28.5262 73.4191 29.8967 73.4207H70.3173C71.6878 73.4191 73.0017 72.874 73.9708 71.905C74.9398 70.9359 75.4849 69.622 75.4865 68.2515V20.7893C75.4849 19.4188 74.9398 18.1049 73.9708 17.1358C73.0017 16.1668 71.6878 15.6217 70.3173 15.6201Z" fill="#E6E6E6"/>
<path d="M70.3176 17.1084H29.8969C28.9209 17.1095 27.9853 17.4977 27.2952 18.1878C26.6051 18.8779 26.2169 19.8135 26.2158 20.7895V68.2517C26.2169 69.2277 26.6051 70.1633 27.2952 70.8534C27.9853 71.5435 28.9209 71.9317 29.8969 71.9328H70.3176C71.2935 71.9317 72.2292 71.5435 72.9193 70.8534C73.6093 70.1633 73.9975 69.2277 73.9986 68.2517V20.7895C73.9975 19.8135 73.6093 18.8779 72.9193 18.1878C72.2292 17.4977 71.2935 17.1095 70.3176 17.1084Z" fill="white"/>
<path d="M74.564 79.1954C79.7754 79.1954 84.0001 74.9707 84.0001 69.7593C84.0001 64.5479 79.7754 60.3232 74.564 60.3232C69.3526 60.3232 65.1279 64.5479 65.1279 69.7593C65.1279 74.9707 69.3526 79.1954 74.564 79.1954Z" fill="#78BE13"/>
<path d="M79.0769 68.5285H75.7948V65.2464C75.7948 64.92 75.6651 64.6069 75.4343 64.3761C75.2035 64.1453 74.8904 64.0156 74.564 64.0156C74.2376 64.0156 73.9245 64.1453 73.6937 64.3761C73.4629 64.6069 73.3332 64.92 73.3332 65.2464V68.5285H70.0511C69.7247 68.5285 69.4116 68.6582 69.1808 68.889C68.95 69.1198 68.8203 69.4329 68.8203 69.7593C68.8203 70.0858 68.95 70.3988 69.1808 70.6296C69.4116 70.8605 69.7247 70.9901 70.0511 70.9901H73.3332V74.2722C73.3332 74.5987 73.4629 74.9117 73.6937 75.1425C73.9245 75.3734 74.2376 75.503 74.564 75.503C74.8904 75.503 75.2035 75.3734 75.4343 75.1425C75.6651 74.9117 75.7948 74.5987 75.7948 74.2722V70.9901H79.0769C79.4033 70.9901 79.7164 70.8605 79.9472 70.6296C80.178 70.3988 80.3077 70.0858 80.3077 69.7593C80.3077 69.4329 80.178 69.1198 79.9472 68.889C79.7164 68.6582 79.4033 68.5285 79.0769 68.5285Z" fill="white"/>
<path d="M64.2339 43.1884H43.7934C43.6803 43.1885 43.5682 43.1664 43.4637 43.1232C43.3592 43.0799 43.2641 43.0166 43.1841 42.9366C43.1041 42.8567 43.0406 42.7617 42.9973 42.6572C42.9539 42.5527 42.9316 42.4407 42.9316 42.3276C42.9316 42.2145 42.9539 42.1025 42.9973 41.998C43.0406 41.8935 43.1041 41.7985 43.1841 41.7186C43.2641 41.6386 43.3592 41.5752 43.4637 41.532C43.5682 41.4888 43.6803 41.4667 43.7934 41.4668H64.2339C64.462 41.4671 64.6807 41.5579 64.8419 41.7193C65.0031 41.8807 65.0937 42.0995 65.0937 42.3276C65.0937 42.5557 65.0031 42.7745 64.8419 42.9359C64.6807 43.0973 64.462 43.1881 64.2339 43.1884Z" fill="#E6E6E6"/>
<path d="M67.7847 46.0937H43.7934C43.6803 46.0938 43.5682 46.0716 43.4637 46.0284C43.3592 45.9852 43.2641 45.9218 43.1841 45.8419C43.1041 45.7619 43.0406 45.667 42.9973 45.5625C42.9539 45.458 42.9316 45.346 42.9316 45.2329C42.9316 45.1197 42.9539 45.0077 42.9973 44.9032C43.0406 44.7987 43.1041 44.7038 43.1841 44.6239C43.2641 44.5439 43.3592 44.4805 43.4637 44.4373C43.5682 44.3941 43.6803 44.3719 43.7934 44.3721H67.7847C68.013 44.3721 68.2319 44.4628 68.3933 44.6242C68.5548 44.7856 68.6455 45.0046 68.6455 45.2329C68.6455 45.4612 68.5548 45.6801 68.3933 45.8416C68.2319 46.003 68.013 46.0937 67.7847 46.0937Z" fill="#E6E6E6"/>
<path d="M64.2339 56.2079H43.7934C43.6803 56.2081 43.5682 56.1859 43.4637 56.1427C43.3592 56.0995 43.2641 56.0361 43.1841 55.9562C43.1041 55.8762 43.0406 55.7813 42.9973 55.6768C42.9539 55.5723 42.9316 55.4603 42.9316 55.3471C42.9316 55.234 42.9539 55.122 42.9973 55.0175C43.0406 54.913 43.1041 54.8181 43.1841 54.7381C43.2641 54.6582 43.3592 54.5948 43.4637 54.5516C43.5682 54.5084 43.6803 54.4862 43.7934 54.4863H64.2339C64.4622 54.4863 64.6811 54.577 64.8425 54.7385C65.004 54.8999 65.0947 55.1188 65.0947 55.3471C65.0947 55.5754 65.004 55.7944 64.8425 55.9558C64.6811 56.1172 64.4622 56.2079 64.2339 56.2079Z" fill="#E6E6E6"/>
<path d="M67.7847 59.1132H43.7934C43.6803 59.1133 43.5682 59.0912 43.4637 59.048C43.3592 59.0048 43.2641 58.9414 43.1841 58.8614C43.1041 58.7815 43.0406 58.6865 42.9973 58.582C42.9539 58.4775 42.9316 58.3655 42.9316 58.2524C42.9316 58.1393 42.9539 58.0273 42.9973 57.9228C43.0406 57.8183 43.1041 57.7233 43.1841 57.6434C43.2641 57.5634 43.3592 57.5001 43.4637 57.4569C43.5682 57.4136 43.6803 57.3915 43.7934 57.3916H67.7847C67.8978 57.3915 68.0098 57.4136 68.1144 57.4569C68.2189 57.5001 68.3139 57.5634 68.394 57.6434C68.474 57.7233 68.5375 57.8183 68.5808 57.9228C68.6241 58.0273 68.6464 58.1393 68.6464 58.2524C68.6464 58.3655 68.6241 58.4775 68.5808 58.582C68.5375 58.6865 68.474 58.7815 68.394 58.8614C68.3139 58.9414 68.2189 59.0048 68.1144 59.048C68.0098 59.0912 67.8978 59.1133 67.7847 59.1132Z" fill="#E6E6E6"/>
<path d="M39.2148 47.4129H31.9811C31.8717 47.4128 31.7668 47.3693 31.6894 47.2919C31.612 47.2145 31.5685 47.1096 31.5684 47.0002V40.5612C31.5685 40.4518 31.612 40.3468 31.6894 40.2695C31.7668 40.1921 31.8717 40.1486 31.9811 40.1484H39.2148C39.3242 40.1486 39.4291 40.1921 39.5065 40.2695C39.5839 40.3468 39.6274 40.4518 39.6276 40.5612V47.0002C39.6274 47.1096 39.5839 47.2145 39.5065 47.2919C39.4291 47.3693 39.3242 47.4128 39.2148 47.4129Z" fill="#E6E6E6"/>
<path d="M39.2148 60.4325H31.9811C31.8717 60.4323 31.7668 60.3888 31.6894 60.3114C31.612 60.2341 31.5685 60.1291 31.5684 60.0197V53.5807C31.5685 53.4713 31.612 53.3664 31.6894 53.289C31.7668 53.2116 31.8717 53.1681 31.9811 53.168H39.2148C39.3242 53.1681 39.4291 53.2116 39.5065 53.289C39.5839 53.3664 39.6274 53.4713 39.6276 53.5807V60.0197C39.6274 60.1291 39.5839 60.2341 39.5065 60.3114C39.4291 60.3888 39.3242 60.4323 39.2148 60.4325Z" fill="#E6E6E6"/>
<path d="M64.2569 28.6952H49.187C48.9587 28.6952 48.7397 28.6045 48.5783 28.4431C48.4169 28.2817 48.3262 28.0627 48.3262 27.8344C48.3262 27.6061 48.4169 27.3872 48.5783 27.2258C48.7397 27.0643 48.9587 26.9736 49.187 26.9736H64.2569C64.4852 26.9736 64.7041 27.0643 64.8656 27.2258C65.027 27.3872 65.1177 27.6061 65.1177 27.8344C65.1177 28.0627 65.027 28.2817 64.8656 28.4431C64.7041 28.6045 64.4852 28.6952 64.2569 28.6952Z" fill="#CCCCCC"/>
<path d="M67.8077 31.6005H49.187C49.0739 31.6005 48.962 31.5782 48.8576 31.535C48.7531 31.4917 48.6582 31.4283 48.5783 31.3484C48.4984 31.2685 48.435 31.1736 48.3917 31.0691C48.3484 30.9647 48.3262 30.8527 48.3262 30.7397C48.3262 30.6267 48.3484 30.5147 48.3917 30.4103C48.435 30.3059 48.4984 30.211 48.5783 30.131C48.6582 30.0511 48.7531 29.9877 48.8576 29.9444C48.962 29.9012 49.0739 29.8789 49.187 29.8789H67.8077C68.036 29.8789 68.2549 29.9696 68.4164 30.131C68.5778 30.2925 68.6685 30.5114 68.6685 30.7397C68.6685 30.968 68.5778 31.187 68.4164 31.3484C68.2549 31.5098 68.036 31.6005 67.8077 31.6005Z" fill="#CCCCCC"/>
<path d="M45.8518 35.1205H31.9587C31.8492 35.1204 31.7443 35.0768 31.6669 34.9995C31.5895 34.9221 31.546 34.8172 31.5459 34.7077V23.8649C31.546 23.7555 31.5895 23.6506 31.6669 23.5732C31.7443 23.4958 31.8492 23.4523 31.9587 23.4521H45.8518C45.9612 23.4523 46.0662 23.4958 46.1435 23.5732C46.2209 23.6506 46.2644 23.7555 46.2646 23.8649V34.7077C46.2644 34.8172 46.2209 34.9221 46.1435 34.9995C46.0662 35.0768 45.9612 35.1204 45.8518 35.1205Z" fill="#78BE13"/>
</g>
<defs>
<clipPath id="clip0_2887_42658">
<rect width="84" height="75.3895" fill="white" transform="translate(0 3.80566)"/>
</clipPath>
</defs>
</svg>
