<svg width="84" height="66" viewBox="0 0 84 66" fill="none" xmlns="http://www.w3.org/2000/svg">
<g clip-path="url(#clip0_2885_29772)">
<path d="M43.0191 3.97012L40.2859 4.67496L6.6122 13.3587L3.87899 14.0636C2.55232 14.4073 1.41616 15.2632 0.719783 16.4436C0.023403 17.624 -0.176331 19.0323 0.164399 20.3598L12.0162 66.3185C12.3599 67.6451 13.2158 68.7813 14.3962 69.4777C15.5766 70.1741 16.9849 70.3738 18.3124 70.0331L18.3194 70.0312L57.4455 59.9414L57.4525 59.9396C58.7792 59.5959 59.9153 58.74 60.6117 57.5596C61.3081 56.3792 61.5078 54.9708 61.1671 53.6434L49.3153 7.68473C48.9716 6.35806 48.1157 5.2219 46.9353 4.52552C45.755 3.82913 44.3466 3.62939 43.0191 3.97012Z" fill="#F2F2F2"/>
<path d="M43.3907 5.41064L40.1534 6.24547L7.4878 14.6693L4.25055 15.5041C3.30579 15.7489 2.49671 16.3584 2.00079 17.199C1.50488 18.0395 1.36265 19.0425 1.60529 19.9878L13.4571 65.9465C13.7019 66.8912 14.3114 67.7003 15.1519 68.1962C15.9925 68.6921 16.9955 68.8343 17.9408 68.5917L17.9478 68.5899L57.0738 58.5001L57.0809 58.4982C58.0257 58.2535 58.8347 57.6439 59.3307 56.8034C59.8265 55.9628 59.9688 54.9599 59.7261 54.0146L47.8743 8.0559C47.6296 7.11116 47.0201 6.30208 46.1795 5.80616C45.339 5.31025 44.336 5.16801 43.3907 5.41064Z" fill="white"/>
<path d="M40.9463 20.2938L21.1534 25.398C20.9323 25.455 20.6977 25.4218 20.501 25.3058C20.3044 25.1898 20.1619 25.0004 20.1049 24.7794C20.0479 24.5583 20.081 24.3236 20.1971 24.127C20.3131 23.9304 20.5024 23.7879 20.7235 23.7309L40.5164 18.6267C40.7374 18.5699 40.9719 18.6032 41.1683 18.7192C41.3648 18.8352 41.5072 19.0245 41.5641 19.2455C41.6211 19.4664 41.588 19.7009 41.4722 19.8975C41.3563 20.0941 41.1672 20.2366 40.9463 20.2938Z" fill="#F2F2F2"/>
<path d="M45.1101 22.2197L21.8789 28.2106C21.6578 28.2676 21.4231 28.2345 21.2265 28.1185C21.0299 28.0024 20.8874 27.8131 20.8304 27.592C20.7734 27.371 20.8065 27.1363 20.9225 26.9397C21.0385 26.743 21.2279 26.6005 21.449 26.5435L44.6802 20.5527C44.9012 20.4957 45.1359 20.5288 45.3325 20.6448C45.5292 20.7608 45.6717 20.9502 45.7287 21.1712C45.7857 21.3923 45.7525 21.627 45.6365 21.8236C45.5205 22.0202 45.3312 22.1627 45.1101 22.2197Z" fill="#F2F2F2"/>
<path d="M44.1975 32.9004L24.4046 38.0046C24.2951 38.0328 24.1811 38.0392 24.0692 38.0234C23.9573 38.0076 23.8496 37.9699 23.7522 37.9124C23.6548 37.855 23.5697 37.779 23.5018 37.6886C23.4338 37.5983 23.3843 37.4955 23.3561 37.386C23.3278 37.2765 23.3214 37.1626 23.3373 37.0507C23.3531 36.9387 23.3908 36.831 23.4482 36.7337C23.5056 36.6363 23.5817 36.5512 23.672 36.4832C23.7624 36.4153 23.8652 36.3657 23.9746 36.3375L43.7676 31.2333C43.877 31.2051 43.991 31.1987 44.1029 31.2145C44.2148 31.2303 44.3226 31.268 44.4199 31.3255C44.5173 31.3829 44.6024 31.459 44.6703 31.5493C44.7383 31.6396 44.7878 31.7424 44.816 31.8519C44.8443 31.9614 44.8507 32.0753 44.8349 32.1872C44.819 32.2992 44.7813 32.4069 44.7239 32.5043C44.6665 32.6016 44.5904 32.6867 44.5001 32.7547C44.4098 32.8227 44.3069 32.8722 44.1975 32.9004Z" fill="#F2F2F2"/>
<path d="M48.3612 34.8272L25.13 40.818C25.0206 40.8462 24.9066 40.8526 24.7947 40.8368C24.6827 40.821 24.575 40.7833 24.4777 40.7259C24.3803 40.6684 24.2952 40.5924 24.2272 40.5021C24.1593 40.4117 24.1098 40.3089 24.0815 40.1994C24.0533 40.09 24.0469 39.976 24.0627 39.8641C24.0785 39.7522 24.1162 39.6444 24.1737 39.5471C24.2311 39.4497 24.3072 39.3646 24.3975 39.2967C24.4878 39.2287 24.5906 39.1792 24.7001 39.151L47.9313 33.1601C48.1524 33.1031 48.3871 33.1362 48.5837 33.2522C48.7803 33.3682 48.9228 33.5576 48.9798 33.7787C49.0368 33.9997 49.0037 34.2344 48.8877 34.431C48.7717 34.6277 48.5823 34.7701 48.3612 34.8272Z" fill="#F2F2F2"/>
<path d="M47.4486 45.5078L27.6557 50.612C27.4347 50.6688 27.2002 50.6356 27.0037 50.5196C26.8072 50.4035 26.6648 50.2142 26.6078 49.9933C26.5508 49.7723 26.5839 49.5378 26.6998 49.3412C26.8157 49.1446 27.0049 49.0021 27.2258 48.9449L47.0187 43.8407C47.2397 43.7837 47.4744 43.8169 47.671 43.9329C47.8677 44.0489 48.0102 44.2383 48.0672 44.4593C48.1242 44.6804 48.091 44.9151 47.975 45.1117C47.859 45.3083 47.6696 45.4508 47.4486 45.5078Z" fill="#F2F2F2"/>
<path d="M51.6124 47.4346L28.3811 53.4254C28.2716 53.4538 28.1576 53.4603 28.0456 53.4445C27.9336 53.4288 27.8258 53.3911 27.7284 53.3337C27.6309 53.2763 27.5457 53.2002 27.4777 53.1098C27.4097 53.0195 27.3601 52.9166 27.3319 52.8071C27.3037 52.6975 27.2973 52.5835 27.3131 52.4715C27.329 52.3595 27.3667 52.2518 27.4242 52.1544C27.4818 52.057 27.5579 51.9719 27.6483 51.9039C27.7387 51.836 27.8417 51.7865 27.9512 51.7584L51.1825 45.7675C51.4035 45.7105 51.6382 45.7436 51.8348 45.8597C52.0314 45.9757 52.1739 46.165 52.2309 46.3861C52.288 46.6072 52.2548 46.8418 52.1388 47.0384C52.0228 47.2351 51.8334 47.3776 51.6124 47.4346Z" fill="#F2F2F2"/>
<path d="M17.7744 30.6313L10.7699 32.4377C10.6639 32.4649 10.5515 32.4489 10.4572 32.3933C10.3629 32.3377 10.2946 32.247 10.2672 32.141L8.65928 25.906C8.63207 25.8 8.64802 25.6876 8.70362 25.5933C8.75923 25.4991 8.84995 25.4307 8.95589 25.4033L15.9604 23.597C16.0664 23.5698 16.1789 23.5857 16.2731 23.6413C16.3674 23.6969 16.4357 23.7876 16.4632 23.8936L18.071 30.1286C18.0983 30.2346 18.0823 30.347 18.0267 30.4413C17.9711 30.5355 17.8804 30.6039 17.7744 30.6313Z" fill="#E6E6E6"/>
<path d="M21.0256 43.2387L14.0211 45.0451C13.9151 45.0723 13.8026 45.0563 13.7084 45.0007C13.6141 44.9451 13.5458 44.8544 13.5183 44.7485L11.9104 38.5135C11.8832 38.4075 11.8992 38.295 11.9548 38.2008C12.0104 38.1065 12.1011 38.0382 12.207 38.0107L19.2116 36.2044C19.3176 36.1772 19.43 36.1931 19.5243 36.2487C19.6185 36.3043 19.6869 36.3951 19.7143 36.501L21.3222 42.736C21.3494 42.842 21.3335 42.9545 21.2779 43.0487C21.2223 43.143 21.1315 43.2113 21.0256 43.2387Z" fill="#E6E6E6"/>
<path d="M24.2768 55.8462L17.2722 57.6525C17.1662 57.6797 17.0538 57.6638 16.9595 57.6082C16.8653 57.5525 16.7969 57.4618 16.7695 57.3559L15.1616 51.1209C15.1344 51.0149 15.1503 50.9024 15.2059 50.8082C15.2615 50.7139 15.3523 50.6456 15.4582 50.6181L22.4627 48.8118C22.5687 48.7846 22.6812 48.8005 22.7754 48.8562C22.8697 48.9118 22.938 49.0025 22.9655 49.1084L24.5734 55.3434C24.6006 55.4494 24.5846 55.5619 24.529 55.6561C24.4734 55.7504 24.3827 55.8187 24.2768 55.8462Z" fill="#E6E6E6"/>
<path d="M70.3174 15.6201H29.8967C28.5263 15.6217 27.2124 16.1668 26.2433 17.1358C25.2742 18.1049 24.7291 19.4188 24.7276 20.7893V68.2515C24.7291 69.622 25.2742 70.9359 26.2433 71.905C27.2124 72.874 28.5263 73.4191 29.8967 73.4207H70.3174C71.6879 73.4191 73.0017 72.874 73.9708 71.905C74.9399 70.9359 75.485 69.622 75.4865 68.2515V20.7893C75.485 19.4188 74.9399 18.1049 73.9708 17.1358C73.0017 16.1668 71.6879 15.6217 70.3174 15.6201Z" fill="#E6E6E6"/>
<path d="M70.3175 17.1084H29.8968C28.9208 17.1095 27.9852 17.4977 27.2951 18.1878C26.605 18.8779 26.2168 19.8135 26.2157 20.7895V68.2517C26.2168 69.2277 26.605 70.1633 27.2951 70.8534C27.9852 71.5435 28.9208 71.9317 29.8968 71.9328H70.3175C71.2934 71.9317 72.229 71.5435 72.9191 70.8534C73.6092 70.1633 73.9974 69.2277 73.9985 68.2517V20.7895C73.9974 19.8135 73.6092 18.8779 72.9191 18.1878C72.229 17.4977 71.2934 17.1095 70.3175 17.1084Z" fill="white"/>
<path d="M74.5639 79.1954C79.7754 79.1954 84 74.9707 84 69.7593C84 64.5479 79.7754 60.3232 74.5639 60.3232C69.3525 60.3232 65.1279 64.5479 65.1279 69.7593C65.1279 74.9707 69.3525 79.1954 74.5639 79.1954Z" fill="#78BE13"/>
<path d="M79.0768 68.5285H75.7947V65.2464C75.7947 64.92 75.665 64.6069 75.4342 64.3761C75.2034 64.1453 74.8903 64.0156 74.5639 64.0156C74.2375 64.0156 73.9244 64.1453 73.6936 64.3761C73.4628 64.6069 73.3331 64.92 73.3331 65.2464V68.5285H70.051C69.7246 68.5285 69.4115 68.6582 69.1807 68.889C68.9499 69.1198 68.8202 69.4329 68.8202 69.7593C68.8202 70.0858 68.9499 70.3988 69.1807 70.6296C69.4115 70.8605 69.7246 70.9901 70.051 70.9901H73.3331V74.2722C73.3331 74.5987 73.4628 74.9117 73.6936 75.1425C73.9244 75.3734 74.2375 75.503 74.5639 75.503C74.8903 75.503 75.2034 75.3734 75.4342 75.1425C75.665 74.9117 75.7947 74.5987 75.7947 74.2722V70.9901H79.0768C79.4032 70.9901 79.7163 70.8605 79.9471 70.6296C80.1779 70.3988 80.3076 70.0858 80.3076 69.7593C80.3076 69.4329 80.1779 69.1198 79.9471 68.889C79.7163 68.6582 79.4032 68.5285 79.0768 68.5285Z" fill="white"/>
<path d="M64.2341 43.1884H43.7936C43.6805 43.1885 43.5685 43.1664 43.4639 43.1232C43.3594 43.0799 43.2644 43.0166 43.1843 42.9366C43.1043 42.8567 43.0408 42.7617 42.9975 42.6572C42.9542 42.5527 42.9319 42.4407 42.9319 42.3276C42.9319 42.2145 42.9542 42.1025 42.9975 41.998C43.0408 41.8935 43.1043 41.7985 43.1843 41.7186C43.2644 41.6386 43.3594 41.5752 43.4639 41.532C43.5685 41.4888 43.6805 41.4667 43.7936 41.4668H64.2341C64.4622 41.4671 64.6809 41.5579 64.8422 41.7193C65.0034 41.8807 65.0939 42.0995 65.0939 42.3276C65.0939 42.5557 65.0034 42.7745 64.8422 42.9359C64.6809 43.0973 64.4622 43.1881 64.2341 43.1884Z" fill="#E6E6E6"/>
<path d="M67.7849 46.0937H43.7936C43.6805 46.0938 43.5685 46.0716 43.4639 46.0284C43.3594 45.9852 43.2644 45.9218 43.1843 45.8419C43.1043 45.7619 43.0408 45.667 42.9975 45.5625C42.9542 45.458 42.9319 45.346 42.9319 45.2329C42.9319 45.1197 42.9542 45.0077 42.9975 44.9032C43.0408 44.7987 43.1043 44.7038 43.1843 44.6239C43.2644 44.5439 43.3594 44.4805 43.4639 44.4373C43.5685 44.3941 43.6805 44.3719 43.7936 44.3721H67.7849C68.0132 44.3721 68.2322 44.4628 68.3936 44.6242C68.555 44.7856 68.6457 45.0046 68.6457 45.2329C68.6457 45.4612 68.555 45.6801 68.3936 45.8416C68.2322 46.003 68.0132 46.0937 67.7849 46.0937Z" fill="#E6E6E6"/>
<path d="M64.2341 56.2079H43.7936C43.6805 56.2081 43.5685 56.1859 43.4639 56.1427C43.3594 56.0995 43.2644 56.0361 43.1843 55.9562C43.1043 55.8762 43.0408 55.7813 42.9975 55.6768C42.9542 55.5723 42.9319 55.4603 42.9319 55.3471C42.9319 55.234 42.9542 55.122 42.9975 55.0175C43.0408 54.913 43.1043 54.8181 43.1843 54.7381C43.2644 54.6582 43.3594 54.5948 43.4639 54.5516C43.5685 54.5084 43.6805 54.4862 43.7936 54.4863H64.2341C64.4624 54.4863 64.6814 54.577 64.8428 54.7385C65.0042 54.8999 65.0949 55.1188 65.0949 55.3471C65.0949 55.5754 65.0042 55.7944 64.8428 55.9558C64.6814 56.1172 64.4624 56.2079 64.2341 56.2079Z" fill="#E6E6E6"/>
<path d="M67.7849 59.1132H43.7936C43.6805 59.1133 43.5685 59.0912 43.4639 59.048C43.3594 59.0048 43.2644 58.9414 43.1843 58.8614C43.1043 58.7815 43.0408 58.6865 42.9975 58.582C42.9542 58.4775 42.9319 58.3655 42.9319 58.2524C42.9319 58.1393 42.9542 58.0273 42.9975 57.9228C43.0408 57.8183 43.1043 57.7233 43.1843 57.6434C43.2644 57.5634 43.3594 57.5001 43.4639 57.4569C43.5685 57.4136 43.6805 57.3915 43.7936 57.3916H67.7849C67.898 57.3915 68.0101 57.4136 68.1146 57.4569C68.2192 57.5001 68.3142 57.5634 68.3942 57.6434C68.4742 57.7233 68.5377 57.8183 68.5811 57.9228C68.6244 58.0273 68.6467 58.1393 68.6467 58.2524C68.6467 58.3655 68.6244 58.4775 68.5811 58.582C68.5377 58.6865 68.4742 58.7815 68.3942 58.8614C68.3142 58.9414 68.2192 59.0048 68.1146 59.048C68.0101 59.0912 67.898 59.1133 67.7849 59.1132Z" fill="#E6E6E6"/>
<path d="M39.2149 47.4129H31.9812C31.8717 47.4128 31.7668 47.3693 31.6894 47.2919C31.6121 47.2145 31.5685 47.1096 31.5684 47.0002V40.5612C31.5685 40.4518 31.6121 40.3468 31.6894 40.2695C31.7668 40.1921 31.8717 40.1486 31.9812 40.1484H39.2149C39.3243 40.1486 39.4292 40.1921 39.5066 40.2695C39.584 40.3468 39.6275 40.4518 39.6276 40.5612V47.0002C39.6275 47.1096 39.584 47.2145 39.5066 47.2919C39.4292 47.3693 39.3243 47.4128 39.2149 47.4129Z" fill="#E6E6E6"/>
<path d="M39.2149 60.4325H31.9812C31.8717 60.4323 31.7668 60.3888 31.6894 60.3114C31.6121 60.2341 31.5685 60.1291 31.5684 60.0197V53.5807C31.5685 53.4713 31.6121 53.3664 31.6894 53.289C31.7668 53.2116 31.8717 53.1681 31.9812 53.168H39.2149C39.3243 53.1681 39.4292 53.2116 39.5066 53.289C39.584 53.3664 39.6275 53.4713 39.6276 53.5807V60.0197C39.6275 60.1291 39.584 60.2341 39.5066 60.3114C39.4292 60.3888 39.3243 60.4323 39.2149 60.4325Z" fill="#E6E6E6"/>
<path d="M64.2568 28.6952H49.1869C48.9586 28.6952 48.7396 28.6045 48.5782 28.4431C48.4167 28.2817 48.326 28.0627 48.326 27.8344C48.326 27.6061 48.4167 27.3872 48.5782 27.2258C48.7396 27.0643 48.9586 26.9736 49.1869 26.9736H64.2568C64.4851 26.9736 64.704 27.0643 64.8654 27.2258C65.0269 27.3872 65.1176 27.6061 65.1176 27.8344C65.1176 28.0627 65.0269 28.2817 64.8654 28.4431C64.704 28.6045 64.4851 28.6952 64.2568 28.6952Z" fill="#CCCCCC"/>
<path d="M67.8076 31.6005H49.1869C49.0738 31.6005 48.9619 31.5782 48.8574 31.535C48.753 31.4917 48.6581 31.4283 48.5782 31.3484C48.4982 31.2685 48.4348 31.1736 48.3916 31.0691C48.3483 30.9647 48.326 30.8527 48.326 30.7397C48.326 30.6267 48.3483 30.5147 48.3916 30.4103C48.4348 30.3059 48.4982 30.211 48.5782 30.131C48.6581 30.0511 48.753 29.9877 48.8574 29.9444C48.9619 29.9012 49.0738 29.8789 49.1869 29.8789H67.8076C68.0359 29.8789 68.2548 29.9696 68.4163 30.131C68.5777 30.2925 68.6684 30.5114 68.6684 30.7397C68.6684 30.968 68.5777 31.187 68.4163 31.3484C68.2548 31.5098 68.0359 31.6005 67.8076 31.6005Z" fill="#CCCCCC"/>
<path d="M45.8516 35.1205H31.9585C31.849 35.1204 31.7441 35.0768 31.6667 34.9995C31.5894 34.9221 31.5458 34.8172 31.5457 34.7077V23.8649C31.5458 23.7555 31.5894 23.6506 31.6667 23.5732C31.7441 23.4958 31.849 23.4523 31.9585 23.4521H45.8516C45.9611 23.4523 46.066 23.4958 46.1433 23.5732C46.2207 23.6506 46.2643 23.7555 46.2644 23.8649V34.7077C46.2643 34.8172 46.2207 34.9221 46.1433 34.9995C46.066 35.0768 45.9611 35.1204 45.8516 35.1205Z" fill="#78BE13"/>
</g>
<defs>
<clipPath id="clip0_2885_29772">
<rect width="84" height="75.3895" fill="white" transform="translate(0 3.80566)"/>
</clipPath>
</defs>
</svg>
