<svg width="84" height="83" viewBox="0 0 84 83" fill="none" xmlns="http://www.w3.org/2000/svg">
<path d="M73.5262 7.95513C73.2402 5.85774 72.8816 3.60589 71.4023 2.09182C70.9329 1.61141 70.3711 1.23103 69.7507 0.973612C69.1304 0.716192 68.4643 0.587065 67.7927 0.594016C67.121 0.600968 66.4578 0.743855 65.8429 1.01406C65.228 1.28427 64.6742 1.67619 64.2148 2.16622C63.138 3.31498 62.6624 4.92803 62.6189 6.50199C62.5754 8.07595 62.9259 9.63244 63.3148 11.1582C65.3727 11.1993 67.4154 10.7973 69.3043 9.97931C69.7672 9.75336 70.2474 9.56482 70.7404 9.41552C71.2394 9.28851 71.5951 9.60811 72.0593 9.83097L72.3141 9.34308C72.5227 9.73125 73.1685 9.61619 73.4028 9.24296C73.637 8.86974 73.5857 8.39175 73.5262 7.95513Z" fill="#2F2E41"/>
<path d="M64.9308 16.8117L65.5267 13.7678L61.0589 11.8335L53.0714 8.00686C53.0158 7.65178 52.8536 7.32197 52.6064 7.06105C52.3592 6.80014 52.0387 6.62041 51.6871 6.54566C51.3355 6.4709 50.9696 6.50463 50.6376 6.64239C50.3056 6.78015 50.0233 7.01544 49.828 7.31715C49.6326 7.61885 49.5335 7.97275 49.5437 8.33202C49.5539 8.6913 49.6729 9.03902 49.8849 9.32919C50.097 9.61935 50.3922 9.8383 50.7315 9.95705C51.0707 10.0758 51.438 10.0888 51.7847 9.99424L59.39 14.6877L64.9308 16.8117Z" fill="#FFB8B8"/>
<path d="M61.9316 16.2963L65.1676 12.9883L65.2316 13.0077C65.2718 13.0199 69.2924 14.2456 71.8555 15.4912C72.1452 15.6212 72.403 15.8129 72.6111 16.0528C72.8191 16.2928 72.9722 16.5752 73.0599 16.8804C73.1874 17.3077 73.1874 17.763 73.0599 18.1904C72.9323 18.6177 72.6827 18.9985 72.3417 19.286C71.9912 19.5998 71.5578 19.8059 71.0932 19.8799C70.6287 19.9538 70.1527 19.8925 69.7221 19.7031L61.9316 16.2963Z" fill="#78BE13"/>
<path d="M61.9219 30.8395L71.0213 33.271L72.8589 24.675L64.5069 22.0898L61.9219 30.8395Z" fill="#FFB8B8"/>
<path d="M72.0393 28.5052L63.1503 26.461L61.4481 22.3355C61.3096 21.7466 61.3432 21.1303 61.545 20.56C61.7468 19.9897 62.1082 19.4894 62.5863 19.1187L65.834 16.3767L67.5751 14.1527L67.3855 12.9741C67.3516 12.7385 67.401 12.4985 67.5253 12.2955C67.6496 12.0925 67.8408 11.9393 68.066 11.8624L70.3864 11.0303C70.6429 10.9344 70.9263 10.9395 71.1792 11.0447C71.4321 11.1498 71.6355 11.3472 71.7484 11.5967L71.9943 12.1657C71.9943 12.1657 73.0435 12.6595 73.6351 12.9372C73.9395 13.0757 74.2113 13.2768 74.4326 13.5275C74.6539 13.7782 74.8197 14.0728 74.9193 14.392C75.8246 17.3182 75.5805 20.4794 74.2367 23.2319L72.0393 28.5052Z" fill="#78BE13"/>
<path d="M46.3833 82.4052H4.25817C3.12922 82.4039 2.04688 81.9549 1.24859 81.1566C0.45031 80.3583 0.00127522 79.276 0 78.147V22.3686C0.00127522 21.2396 0.450313 20.1573 1.2486 19.359C2.04689 18.5607 3.12923 18.1116 4.25818 18.1104H46.3833C47.5122 18.1116 48.5946 18.5607 49.3929 19.359C50.1912 20.1572 50.6402 21.2396 50.6415 22.3686V78.147C50.6402 79.276 50.1912 80.3583 49.3929 81.1566C48.5946 81.9549 47.5122 82.4039 46.3833 82.4052Z" fill="#E6E6E6"/>
<path d="M30.3051 78.9541H7.21899C6.19104 78.9529 5.20553 78.5441 4.47867 77.8172C3.75181 77.0903 3.34295 76.1048 3.3418 75.0768V25.4416C3.34296 24.4137 3.75182 23.4282 4.47868 22.7013C5.20554 21.9745 6.19105 21.5656 7.21899 21.5645H43.422C44.4499 21.5656 45.4354 21.9745 46.1623 22.7013C46.8891 23.4282 47.298 24.4137 47.2991 25.4416V61.9601C47.294 66.4656 45.502 70.7852 42.3161 73.9711C39.1302 77.1569 34.8106 78.949 30.3051 78.9541Z" fill="white"/>
<path d="M39.8111 31.0924H10.8311C10.707 31.0926 10.584 31.0683 10.4693 31.0209C10.3546 30.9736 10.2503 30.9041 10.1624 30.8164C10.0745 30.7288 10.0048 30.6247 9.95716 30.5101C9.90952 30.3954 9.88492 30.2726 9.88477 30.1485C9.88461 30.0243 9.9089 29.9014 9.95625 29.7867C10.0036 29.672 10.0731 29.5677 10.1608 29.4798C10.2484 29.3919 10.3525 29.3222 10.4671 29.2745C10.5817 29.2269 10.7046 29.2023 10.8287 29.2021H39.8111C40.0617 29.2018 40.3022 29.3011 40.4797 29.4781C40.6572 29.6552 40.757 29.8954 40.7574 30.1461C40.7577 30.3968 40.6584 30.6373 40.4814 30.8148C40.3044 30.9922 40.0641 31.0921 39.8134 31.0924H39.8111Z" fill="#78BE13"/>
<path d="M39.8109 34.8259H10.8309C10.5802 34.8259 10.3398 34.7263 10.1626 34.5491C9.98533 34.3718 9.88574 34.1314 9.88574 33.8807C9.88574 33.6301 9.98533 33.3896 10.1626 33.2124C10.3398 33.0351 10.5802 32.9355 10.8309 32.9355H39.8109C40.0616 32.9355 40.302 33.0351 40.4792 33.2124C40.6565 33.3896 40.7561 33.6301 40.7561 33.8807C40.7561 34.1314 40.6565 34.3718 40.4792 34.5491C40.302 34.7263 40.0616 34.8259 39.8109 34.8259Z" fill="#78BE13"/>
<path d="M23.3931 38.5613H10.8309C10.5802 38.5613 10.3398 38.4617 10.1626 38.2844C9.98533 38.1072 9.88574 37.8668 9.88574 37.6161C9.88574 37.3654 9.98533 37.125 10.1626 36.9477C10.3398 36.7705 10.5802 36.6709 10.8309 36.6709H23.3931C23.6437 36.6709 23.8841 36.7705 24.0614 36.9477C24.2387 37.125 24.3382 37.3654 24.3382 37.6161C24.3382 37.8668 24.2387 38.1072 24.0614 38.2844C23.8841 38.4617 23.6437 38.5613 23.3931 38.5613Z" fill="#78BE13"/>
<path d="M39.8111 46.3844H10.8311C10.5804 46.3847 10.3399 46.2854 10.1624 46.1084C9.98495 45.9314 9.88508 45.6911 9.88477 45.4405C9.88445 45.1898 9.98373 44.9493 10.1608 44.7718C10.3378 44.5943 10.578 44.4945 10.8287 44.4941H39.8111C40.0617 44.4938 40.3022 44.5931 40.4797 44.7701C40.6572 44.9472 40.757 45.1874 40.7574 45.4381C40.7577 45.6888 40.6584 45.9293 40.4814 46.1067C40.3044 46.2842 40.0641 46.3841 39.8134 46.3844H39.8111Z" fill="#E4E4E4"/>
<path d="M39.8109 50.1199H10.8309C10.5802 50.1199 10.3398 50.0203 10.1626 49.843C9.98533 49.6658 9.88574 49.4254 9.88574 49.1747C9.88574 48.924 9.98533 48.6836 10.1626 48.5063C10.3398 48.3291 10.5802 48.2295 10.8309 48.2295H39.8109C40.0616 48.2295 40.302 48.3291 40.4792 48.5063C40.6565 48.6836 40.7561 48.924 40.7561 49.1747C40.7561 49.4254 40.6565 49.6658 40.4792 49.843C40.302 50.0203 40.0616 50.1199 39.8109 50.1199Z" fill="#E4E4E4"/>
<path d="M23.3931 53.8542H10.8309C10.5802 53.8542 10.3398 53.7546 10.1626 53.5774C9.98533 53.4001 9.88574 53.1597 9.88574 52.909C9.88574 52.6584 9.98533 52.418 10.1626 52.2407C10.3398 52.0635 10.5802 51.9639 10.8309 51.9639H23.3931C23.6437 51.9639 23.8841 52.0635 24.0614 52.2407C24.2387 52.418 24.3382 52.6584 24.3382 52.909C24.3382 53.1597 24.2387 53.4001 24.0614 53.5774C23.8841 53.7546 23.6437 53.8542 23.3931 53.8542Z" fill="#E4E4E4"/>
<path d="M39.8111 61.6754H10.8311C10.5804 61.6757 10.3399 61.5765 10.1624 61.3994C9.98495 61.2224 9.88508 60.9821 9.88477 60.7315C9.88445 60.4808 9.98373 60.2403 10.1608 60.0628C10.3378 59.8853 10.578 59.7855 10.8287 59.7852H39.8111C40.0617 59.7848 40.3022 59.8841 40.4797 60.0611C40.6572 60.2382 40.757 60.4784 40.7574 60.7291C40.7577 60.9798 40.6584 61.2203 40.4814 61.3978C40.3044 61.5752 40.0641 61.6751 39.8134 61.6754H39.8111Z" fill="#E4E4E4"/>
<path d="M39.8109 65.4099H10.8309C10.5802 65.4099 10.3398 65.3103 10.1626 65.133C9.98533 64.9558 9.88574 64.7154 9.88574 64.4647C9.88574 64.214 9.98533 63.9736 10.1626 63.7964C10.3398 63.6191 10.5802 63.5195 10.8309 63.5195H39.8109C40.0616 63.5195 40.302 63.6191 40.4792 63.7964C40.6565 63.9736 40.7561 64.214 40.7561 64.4647C40.7561 64.7154 40.6565 64.9558 40.4792 65.133C40.302 65.3103 40.0616 65.4099 39.8109 65.4099Z" fill="#E4E4E4"/>
<path d="M23.3932 69.1443H10.8311C10.5807 69.1438 10.3408 69.044 10.1639 68.8668C9.98703 68.6896 9.8877 68.4495 9.8877 68.1991C9.8877 67.9487 9.98703 67.7086 10.1639 67.5314C10.3408 67.3542 10.5807 67.2544 10.8311 67.2539H23.3932C23.6436 67.2544 23.8835 67.3542 24.0604 67.5314C24.2372 67.7086 24.3366 67.9487 24.3366 68.1991C24.3366 68.4495 24.2372 68.6896 24.0604 68.8668C23.8835 69.044 23.6436 69.1438 23.3932 69.1443Z" fill="#E4E4E4"/>
<path d="M48.5606 31.4825C55.3466 31.4825 60.8477 25.9814 60.8477 19.1954C60.8477 12.4093 55.3466 6.9082 48.5606 6.9082C41.7746 6.9082 36.2734 12.4093 36.2734 19.1954C36.2734 25.9814 41.7746 31.4825 48.5606 31.4825Z" fill="#78BE13"/>
<path opacity="0.16" d="M48.5606 29.7806C45.452 29.7802 42.4591 28.6014 40.1852 26.4818C37.9114 24.3621 36.5255 21.4593 36.3071 18.3584C36.2872 18.6444 36.2734 18.9322 36.2734 19.2233C36.2747 22.4813 37.5697 25.6054 39.8739 27.9087C42.178 30.212 45.3026 31.5059 48.5606 31.5059C51.8185 31.5059 54.9431 30.212 57.2473 27.9087C59.5514 25.6054 60.8465 22.4813 60.8477 19.2233C60.8477 18.9322 60.834 18.6444 60.814 18.3584C60.5956 21.4593 59.2098 24.3621 56.9359 26.4818C54.662 28.6014 51.6692 29.7802 48.5606 29.7806Z" fill="#231F20"/>
<path d="M48.5613 25.1996C48.1533 25.1992 47.7622 25.0369 47.4737 24.7484C47.1852 24.4599 47.0229 24.0688 47.0225 23.6608V14.7572C47.0222 14.555 47.0619 14.3547 47.1391 14.1678C47.2164 13.981 47.3297 13.8111 47.4726 13.6681C47.6155 13.525 47.7852 13.4115 47.972 13.3341C48.1588 13.2567 48.359 13.2168 48.5612 13.2168C48.7634 13.2168 48.9637 13.2567 49.1505 13.3341C49.3373 13.4115 49.507 13.525 49.6499 13.6681C49.7928 13.8111 49.9061 13.981 49.9833 14.1678C50.0606 14.3547 50.1002 14.555 50.1 14.7572V23.6608C50.0995 24.0688 49.9373 24.4599 49.6488 24.7484C49.3603 25.0369 48.9692 25.1992 48.5613 25.1996Z" fill="white"/>
<path d="M42.5703 19.2107C42.5708 18.8027 42.7331 18.4116 43.0215 18.1231C43.31 17.8346 43.7011 17.6723 44.1091 17.6719H53.0128C53.215 17.6717 53.4152 17.7113 53.6021 17.7885C53.789 17.8658 53.9588 17.9791 54.1019 18.122C54.2449 18.2649 54.3584 18.4346 54.4359 18.6214C54.5133 18.8082 54.5532 19.0084 54.5532 19.2106C54.5532 19.4128 54.5133 19.6131 54.4359 19.7999C54.3584 19.9867 54.2449 20.1564 54.1019 20.2993C53.9588 20.4422 53.789 20.5555 53.6021 20.6327C53.4152 20.71 53.215 20.7496 53.0128 20.7494H44.1091C43.7012 20.7489 43.31 20.5867 43.0215 20.2982C42.7331 20.0098 42.5708 19.6186 42.5703 19.2107Z" fill="white"/>
<path d="M67.0321 21.8199L64.4174 20.1514L60.9822 23.6014L54.4978 29.6341C54.147 29.556 53.7807 29.5862 53.4474 29.7207C53.1141 29.8553 52.8295 30.0878 52.6313 30.3876C52.4331 30.6874 52.3305 31.0404 52.3372 31.3997C52.3439 31.7591 52.4596 32.1079 52.6689 32.4001C52.8781 32.6923 53.1712 32.9141 53.5093 33.0361C53.8473 33.1582 54.2145 33.1747 54.5622 33.0835C54.9098 32.9923 55.2216 32.7977 55.4563 32.5255C55.6909 32.2533 55.8374 31.9162 55.8764 31.5589L63.0276 26.199L67.0321 21.8199Z" fill="#FFB8B8"/>
<path d="M65.4547 24.4247L63.5605 20.2026L63.602 20.1502C63.6281 20.1172 66.2403 16.8241 68.3374 14.8947C68.5645 14.6727 68.8372 14.5029 69.1366 14.3971C69.436 14.2914 69.7549 14.2522 70.071 14.2823C70.5153 14.3202 70.939 14.4868 71.29 14.762C71.6409 15.0371 71.904 15.4086 72.0469 15.831C72.2106 16.272 72.2438 16.7508 72.1427 17.2102C72.0415 17.6695 71.8102 18.09 71.4763 18.4214L65.4547 24.4247Z" fill="#78BE13"/>
<path d="M67.1662 10.5463C69.4364 10.5463 71.2767 8.70592 71.2767 6.43573C71.2767 4.16555 69.4364 2.3252 67.1662 2.3252C64.896 2.3252 63.0557 4.16555 63.0557 6.43573C63.0557 8.70592 64.896 10.5463 67.1662 10.5463Z" fill="#FFB8B8"/>
<path d="M60.7796 79.4616H59.0803L58.2715 72.9072H60.7796V79.4616Z" fill="#FFB8B8"/>
<path d="M61.6766 82.4039H60.4579L60.2404 81.2534L59.6833 82.4039H56.4512C56.2963 82.4039 56.1454 82.3544 56.0206 82.2626C55.8958 82.1708 55.8036 82.0415 55.7575 81.8936C55.7114 81.7457 55.7138 81.5869 55.7643 81.4405C55.8148 81.294 55.9109 81.1675 56.0383 81.0795L58.6194 79.2969V78.1338L61.3342 78.2958L61.6766 82.4039Z" fill="#2F2E41"/>
<path d="M82.0776 78.0194L80.4987 78.6479L77.3232 72.8574L79.6535 71.9297L82.0776 78.0194Z" fill="#FFB8B8"/>
<path d="M83.9996 80.4226L82.8673 80.8734L82.2397 79.8848L82.1476 81.1598L79.1447 82.3552C79.0008 82.4125 78.8423 82.4223 78.6924 82.3832C78.5425 82.344 78.409 82.258 78.3115 82.1376C78.2139 82.0173 78.1574 81.8689 78.1502 81.7141C78.143 81.5593 78.1854 81.4063 78.2713 81.2774L80.0101 78.6666L79.5799 77.5859L82.1622 76.7324L83.9996 80.4226Z" fill="#2F2E41"/>
<path d="M61.4349 76.449H57.9199L58.8914 59.9349L58.1812 48.7413L58.1827 48.7324L60.8313 32.6869C61.0396 31.4216 61.6027 30.2414 62.4551 29.2834L62.4873 29.2471L71.3513 31.4363L72.2425 33.4684C75.2856 35.2784 76.2467 45.4848 76.2862 45.9195L77.5745 58.6429L80.7261 74.2367L78.5067 75.4317L78.4695 75.3577L71.4631 61.4254L67.0383 46.7329L64.2047 59.9564L61.4349 76.449Z" fill="#2F2E41"/>
<path d="M72.2568 6.62716C72.1113 5.6717 71.9594 4.70824 71.6177 3.80858C71.2759 2.90892 70.7251 2.06625 69.935 1.55661C68.684 0.74971 67.0643 0.905332 65.6617 1.36948C64.577 1.72843 63.5181 2.27401 62.7532 3.15112C61.9883 4.02823 61.5586 5.27977 61.8432 6.42663C63.3393 6.07314 64.8355 5.71965 66.3316 5.36616L66.1679 5.48189C66.6591 5.72685 67.0881 6.08051 67.4223 6.51602C67.7564 6.95154 67.987 7.45746 68.0964 7.99539C68.2034 8.53985 68.1881 9.10129 68.0515 9.63909C67.9149 10.1769 67.6604 10.6776 67.3066 11.105C68.327 10.743 69.3474 10.3811 70.3677 10.0191C70.9976 9.79567 71.6716 9.53823 72.0451 8.96516C72.4781 8.30074 72.3775 7.42008 72.2568 6.62716Z" fill="#2F2E41"/>
</svg>
