<svg width="84" height="83" viewBox="0 0 84 83" fill="none" xmlns="http://www.w3.org/2000/svg">
<path d="M73.5262 7.95513C73.2403 5.85774 72.8817 3.60589 71.4024 2.09182C70.933 1.61141 70.3712 1.23103 69.7508 0.973612C69.1304 0.716192 68.4643 0.587065 67.7927 0.594016C67.1211 0.600968 66.4578 0.743855 65.8429 1.01406C65.228 1.28427 64.6742 1.67619 64.2149 2.16622C63.138 3.31498 62.6625 4.92803 62.619 6.50199C62.5754 8.07595 62.926 9.63244 63.3149 11.1582C65.3728 11.1993 67.4155 10.7973 69.3044 9.97931C69.7672 9.75336 70.2475 9.56482 70.7404 9.41552C71.2394 9.28851 71.5951 9.60811 72.0593 9.83097L72.3141 9.34308C72.5227 9.73125 73.1686 9.61619 73.4029 9.24296C73.6371 8.86974 73.5858 8.39175 73.5262 7.95513Z" fill="#2F2E41"/>
<path d="M64.9308 16.8117L65.5267 13.7678L61.0588 11.8335L53.0714 8.00686C53.0157 7.65178 52.8536 7.32197 52.6064 7.06105C52.3592 6.80014 52.0386 6.62041 51.687 6.54566C51.3355 6.4709 50.9695 6.50463 50.6375 6.64239C50.3056 6.78015 50.0232 7.01544 49.8279 7.31715C49.6326 7.61885 49.5334 7.97275 49.5436 8.33202C49.5538 8.6913 49.6728 9.03902 49.8849 9.32919C50.097 9.61935 50.3922 9.8383 50.7314 9.95705C51.0706 10.0758 51.4379 10.0888 51.7847 9.99424L59.3899 14.6877L64.9308 16.8117Z" fill="#FFB8B8"/>
<path d="M61.9317 16.2963L65.1676 12.9883L65.2316 13.0077C65.2719 13.0199 69.2924 14.2456 71.8555 15.4912C72.1452 15.6212 72.4031 15.8129 72.6111 16.0528C72.8191 16.2928 72.9723 16.5752 73.0599 16.8804C73.1875 17.3077 73.1875 17.763 73.0599 18.1904C72.9323 18.6177 72.6827 18.9985 72.3418 19.286C71.9913 19.5998 71.5578 19.8059 71.0933 19.8799C70.6287 19.9538 70.1527 19.8925 69.7221 19.7031L61.9317 16.2963Z" fill="#78BE13"/>
<path d="M61.9218 30.8395L71.0212 33.271L72.8588 24.675L64.5068 22.0898L61.9218 30.8395Z" fill="#FFB8B8"/>
<path d="M72.0396 28.5052L63.1506 26.461L61.4484 22.3355C61.3099 21.7466 61.3435 21.1303 61.5453 20.56C61.7471 19.9897 62.1086 19.4894 62.5866 19.1187L65.8343 16.3767L67.5754 14.1527L67.3858 12.9741C67.3519 12.7385 67.4014 12.4985 67.5256 12.2955C67.6499 12.0925 67.8411 11.9393 68.0663 11.8624L70.3867 11.0303C70.6432 10.9344 70.9266 10.9395 71.1795 11.0447C71.4324 11.1498 71.6358 11.3472 71.7487 11.5967L71.9946 12.1657C71.9946 12.1657 73.0438 12.6595 73.6354 12.9372C73.9398 13.0757 74.2116 13.2768 74.4329 13.5275C74.6542 13.7782 74.82 14.0728 74.9196 14.392C75.8249 17.3182 75.5808 20.4794 74.237 23.2319L72.0396 28.5052Z" fill="#78BE13"/>
<path d="M46.3833 82.4052H4.25817C3.12922 82.4039 2.04688 81.9549 1.24859 81.1566C0.45031 80.3583 0.00127522 79.276 0 78.147V22.3686C0.00127522 21.2396 0.450313 20.1573 1.2486 19.359C2.04689 18.5607 3.12923 18.1116 4.25818 18.1104H46.3833C47.5122 18.1116 48.5946 18.5607 49.3929 19.359C50.1912 20.1572 50.6402 21.2396 50.6415 22.3686V78.147C50.6402 79.276 50.1912 80.3583 49.3929 81.1566C48.5946 81.9549 47.5122 82.4039 46.3833 82.4052Z" fill="#E6E6E6"/>
<path d="M30.3054 78.9541H7.21923C6.19128 78.9529 5.20578 78.5441 4.47891 77.8172C3.75205 77.0903 3.34319 76.1048 3.34204 75.0768V25.4416C3.3432 24.4137 3.75206 23.4282 4.47892 22.7013C5.20579 21.9745 6.19129 21.5656 7.21923 21.5645H43.4222C44.4501 21.5656 45.4356 21.9745 46.1625 22.7013C46.8894 23.4282 47.2982 24.4137 47.2994 25.4416V61.9601C47.2943 66.4656 45.5022 70.7852 42.3163 73.9711C39.1304 77.1569 34.8109 78.949 30.3054 78.9541Z" fill="white"/>
<path d="M39.8107 31.0924H10.8307C10.7066 31.0926 10.5837 31.0683 10.4689 31.0209C10.3542 30.9736 10.2499 30.9041 10.1621 30.8164C10.0742 30.7288 10.0044 30.6247 9.9568 30.5101C9.90915 30.3954 9.88456 30.2726 9.8844 30.1485C9.88424 30.0243 9.90853 29.9014 9.95589 29.7867C10.0032 29.672 10.0727 29.5677 10.1604 29.4798C10.248 29.3919 10.3521 29.3222 10.4668 29.2745C10.5814 29.2269 10.7042 29.2023 10.8283 29.2021H39.8107C40.0613 29.2018 40.3019 29.3011 40.4793 29.4781C40.6568 29.6552 40.7567 29.8954 40.757 30.1461C40.7573 30.3968 40.658 30.6373 40.481 30.8148C40.304 30.9922 40.0637 31.0921 39.813 31.0924H39.8107Z" fill="#78BE13"/>
<path d="M39.8109 34.8259H10.8309C10.5802 34.8259 10.3398 34.7263 10.1626 34.5491C9.98533 34.3718 9.88574 34.1314 9.88574 33.8807C9.88574 33.6301 9.98533 33.3896 10.1626 33.2124C10.3398 33.0351 10.5802 32.9355 10.8309 32.9355H39.8109C40.0616 32.9355 40.302 33.0351 40.4792 33.2124C40.6565 33.3896 40.7561 33.6301 40.7561 33.8807C40.7561 34.1314 40.6565 34.3718 40.4792 34.5491C40.302 34.7263 40.0616 34.8259 39.8109 34.8259Z" fill="#78BE13"/>
<path d="M23.3931 38.5613H10.8309C10.5802 38.5613 10.3398 38.4617 10.1626 38.2844C9.98533 38.1072 9.88574 37.8668 9.88574 37.6161C9.88574 37.3654 9.98533 37.125 10.1626 36.9477C10.3398 36.7705 10.5802 36.6709 10.8309 36.6709H23.3931C23.6437 36.6709 23.8841 36.7705 24.0614 36.9477C24.2387 37.125 24.3382 37.3654 24.3382 37.6161C24.3382 37.8668 24.2387 38.1072 24.0614 38.2844C23.8841 38.4617 23.6437 38.5613 23.3931 38.5613Z" fill="#78BE13"/>
<path d="M39.8107 46.3844H10.8307C10.58 46.3847 10.3395 46.2854 10.1621 46.1084C9.98459 45.9314 9.88471 45.6911 9.8844 45.4405C9.88409 45.1898 9.98336 44.9493 10.1604 44.7718C10.3374 44.5943 10.5777 44.4945 10.8283 44.4941H39.8107C40.0613 44.4938 40.3019 44.5931 40.4793 44.7701C40.6568 44.9472 40.7567 45.1874 40.757 45.4381C40.7573 45.6888 40.658 45.9293 40.481 46.1067C40.304 46.2842 40.0637 46.3841 39.813 46.3844H39.8107Z" fill="#E4E4E4"/>
<path d="M39.8109 50.1199H10.8309C10.5802 50.1199 10.3398 50.0203 10.1626 49.843C9.98533 49.6658 9.88574 49.4254 9.88574 49.1747C9.88574 48.924 9.98533 48.6836 10.1626 48.5063C10.3398 48.3291 10.5802 48.2295 10.8309 48.2295H39.8109C40.0616 48.2295 40.302 48.3291 40.4792 48.5063C40.6565 48.6836 40.7561 48.924 40.7561 49.1747C40.7561 49.4254 40.6565 49.6658 40.4792 49.843C40.302 50.0203 40.0616 50.1199 39.8109 50.1199Z" fill="#E4E4E4"/>
<path d="M23.3931 53.8542H10.8309C10.5802 53.8542 10.3398 53.7546 10.1626 53.5774C9.98533 53.4001 9.88574 53.1597 9.88574 52.909C9.88574 52.6584 9.98533 52.418 10.1626 52.2407C10.3398 52.0635 10.5802 51.9639 10.8309 51.9639H23.3931C23.6437 51.9639 23.8841 52.0635 24.0614 52.2407C24.2387 52.418 24.3382 52.6584 24.3382 52.909C24.3382 53.1597 24.2387 53.4001 24.0614 53.5774C23.8841 53.7546 23.6437 53.8542 23.3931 53.8542Z" fill="#E4E4E4"/>
<path d="M39.8107 61.6754H10.8307C10.58 61.6757 10.3395 61.5765 10.1621 61.3994C9.98459 61.2224 9.88471 60.9821 9.8844 60.7315C9.88409 60.4808 9.98336 60.2403 10.1604 60.0628C10.3374 59.8853 10.5777 59.7855 10.8283 59.7852H39.8107C40.0613 59.7848 40.3019 59.8841 40.4793 60.0611C40.6568 60.2382 40.7567 60.4784 40.757 60.7291C40.7573 60.9798 40.658 61.2203 40.481 61.3978C40.304 61.5752 40.0637 61.6751 39.813 61.6754H39.8107Z" fill="#E4E4E4"/>
<path d="M39.8109 65.4099H10.8309C10.5802 65.4099 10.3398 65.3103 10.1626 65.133C9.98533 64.9558 9.88574 64.7154 9.88574 64.4647C9.88574 64.214 9.98533 63.9736 10.1626 63.7964C10.3398 63.6191 10.5802 63.5195 10.8309 63.5195H39.8109C40.0616 63.5195 40.302 63.6191 40.4792 63.7964C40.6565 63.9736 40.7561 64.214 40.7561 64.4647C40.7561 64.7154 40.6565 64.9558 40.4792 65.133C40.302 65.3103 40.0616 65.4099 39.8109 65.4099Z" fill="#E4E4E4"/>
<path d="M23.3932 69.1443H10.831C10.5807 69.1438 10.3407 69.044 10.1639 68.8668C9.987 68.6896 9.88766 68.4495 9.88766 68.1991C9.88766 67.9487 9.987 67.7086 10.1639 67.5314C10.3407 67.3542 10.5807 67.2544 10.831 67.2539H23.3932C23.6435 67.2544 23.8835 67.3542 24.0603 67.5314C24.2372 67.7086 24.3365 67.9487 24.3365 68.1991C24.3365 68.4495 24.2372 68.6896 24.0603 68.8668C23.8835 69.044 23.6435 69.1438 23.3932 69.1443Z" fill="#E4E4E4"/>
<path d="M48.561 31.4825C55.347 31.4825 60.8482 25.9814 60.8482 19.1954C60.8482 12.4093 55.347 6.9082 48.561 6.9082C41.775 6.9082 36.2739 12.4093 36.2739 19.1954C36.2739 25.9814 41.775 31.4825 48.561 31.4825Z" fill="#78BE13"/>
<path opacity="0.16" d="M48.561 29.7806C45.4524 29.7802 42.4595 28.6014 40.1857 26.4818C37.9118 24.3621 36.526 21.4593 36.3075 18.3584C36.2876 18.6444 36.2739 18.9322 36.2739 19.2233C36.2751 22.4813 37.5702 25.6054 39.8743 27.9087C42.1785 30.212 45.3031 31.5059 48.561 31.5059C51.819 31.5059 54.9435 30.212 57.2477 27.9087C59.5519 25.6054 60.8469 22.4813 60.8482 19.2233C60.8482 18.9322 60.8344 18.6444 60.8145 18.3584C60.5961 21.4593 59.2102 24.3621 56.9364 26.4818C54.6625 28.6014 51.6696 29.7802 48.561 29.7806Z" fill="#231F20"/>
<path d="M48.5612 25.1996C48.1532 25.1992 47.7621 25.0369 47.4736 24.7484C47.1851 24.4599 47.0228 24.0688 47.0224 23.6608V14.7572C47.0222 14.555 47.0618 14.3547 47.139 14.1678C47.2163 13.981 47.3296 13.8111 47.4725 13.6681C47.6154 13.525 47.7851 13.4115 47.9719 13.3341C48.1587 13.2567 48.3589 13.2168 48.5611 13.2168C48.7633 13.2168 48.9636 13.2567 49.1504 13.3341C49.3372 13.4115 49.5069 13.525 49.6498 13.6681C49.7927 13.8111 49.906 13.981 49.9832 14.1678C50.0605 14.3547 50.1001 14.555 50.0999 14.7572V23.6608C50.0994 24.0688 49.9372 24.4599 49.6487 24.7484C49.3603 25.0369 48.9691 25.1992 48.5612 25.1996Z" fill="white"/>
<path d="M42.5705 19.2107C42.571 18.8027 42.7332 18.4116 43.0217 18.1231C43.3102 17.8346 43.7013 17.6723 44.1093 17.6719H53.0129C53.2152 17.6717 53.4154 17.7113 53.6023 17.7885C53.7892 17.8658 53.959 17.9791 54.1021 18.122C54.2451 18.2649 54.3586 18.4346 54.436 18.6214C54.5135 18.8082 54.5533 19.0084 54.5533 19.2106C54.5533 19.4128 54.5135 19.6131 54.436 19.7999C54.3586 19.9867 54.2451 20.1564 54.1021 20.2993C53.959 20.4422 53.7892 20.5555 53.6023 20.6327C53.4154 20.71 53.2152 20.7496 53.0129 20.7494H44.1093C43.7013 20.7489 43.3102 20.5867 43.0217 20.2982C42.7333 20.0098 42.571 19.6186 42.5705 19.2107Z" fill="white"/>
<path d="M67.0321 21.8199L64.4174 20.1514L60.9822 23.6014L54.4978 29.6341C54.147 29.556 53.7807 29.5862 53.4474 29.7207C53.1141 29.8553 52.8295 30.0878 52.6313 30.3876C52.4331 30.6874 52.3305 31.0404 52.3372 31.3997C52.3439 31.7591 52.4596 32.1079 52.6689 32.4001C52.8781 32.6923 53.1712 32.9141 53.5093 33.0361C53.8473 33.1582 54.2145 33.1747 54.5622 33.0835C54.9098 32.9923 55.2216 32.7977 55.4563 32.5255C55.6909 32.2533 55.8374 31.9162 55.8764 31.5589L63.0276 26.199L67.0321 21.8199Z" fill="#FFB8B8"/>
<path d="M65.4549 24.4247L63.5607 20.2026L63.6022 20.1502C63.6283 20.1172 66.2404 16.8241 68.3376 14.8947C68.5646 14.6727 68.8373 14.5029 69.1368 14.3971C69.4362 14.2914 69.755 14.2522 70.0712 14.2823C70.5155 14.3202 70.9391 14.4868 71.2901 14.762C71.6411 15.0371 71.9042 15.4086 72.047 15.831C72.2108 16.272 72.244 16.7508 72.1428 17.2102C72.0416 17.6695 71.8103 18.09 71.4765 18.4214L65.4549 24.4247Z" fill="#78BE13"/>
<path d="M67.1666 10.5463C69.4368 10.5463 71.2772 8.70592 71.2772 6.43573C71.2772 4.16555 69.4368 2.3252 67.1666 2.3252C64.8964 2.3252 63.0561 4.16555 63.0561 6.43573C63.0561 8.70592 64.8964 10.5463 67.1666 10.5463Z" fill="#FFB8B8"/>
<path d="M60.7799 79.4616H59.0806L58.2719 72.9072H60.7799V79.4616Z" fill="#FFB8B8"/>
<path d="M61.6768 82.4039H60.4582L60.2407 81.2534L59.6836 82.4039H56.4515C56.2965 82.4039 56.1457 82.3544 56.0209 82.2626C55.8961 82.1708 55.8039 82.0415 55.7578 81.8936C55.7117 81.7457 55.714 81.5869 55.7646 81.4405C55.8151 81.294 55.9111 81.1675 56.0386 81.0795L58.6197 79.2969V78.1338L61.3345 78.2958L61.6768 82.4039Z" fill="#2F2E41"/>
<path d="M82.0777 78.0194L80.4989 78.6479L77.3234 72.8574L79.6536 71.9297L82.0777 78.0194Z" fill="#FFB8B8"/>
<path d="M84 80.4226L82.8678 80.8734L82.2402 79.8848L82.1481 81.1598L79.1451 82.3552C79.0012 82.4125 78.8427 82.4223 78.6928 82.3832C78.5429 82.344 78.4094 82.258 78.3119 82.1376C78.2144 82.0173 78.1579 81.8689 78.1506 81.7141C78.1434 81.5593 78.1858 81.4063 78.2717 81.2774L80.0105 78.6666L79.5803 77.5859L82.1626 76.7324L84 80.4226Z" fill="#2F2E41"/>
<path d="M61.4352 76.449H57.9202L58.8917 59.9349L58.1815 48.7413L58.183 48.7324L60.8316 32.6869C61.04 31.4216 61.603 30.2414 62.4554 29.2834L62.4876 29.2471L71.3516 31.4363L72.2428 33.4684C75.2859 35.2784 76.247 45.4848 76.2865 45.9195L77.5748 58.6429L80.7264 74.2367L78.507 75.4317L78.4698 75.3577L71.4634 61.4254L67.0386 46.7329L64.205 59.9564L61.4352 76.449Z" fill="#2F2E41"/>
<path d="M72.2567 6.62716C72.1112 5.6717 71.9593 4.70824 71.6176 3.80858C71.2759 2.90892 70.7251 2.06625 69.935 1.55661C68.6839 0.74971 67.0642 0.905332 65.6616 1.36948C64.5769 1.72843 63.5181 2.27401 62.7532 3.15112C61.9882 4.02823 61.5586 5.27977 61.8431 6.42663C63.3393 6.07314 64.8354 5.71965 66.3316 5.36616L66.1678 5.48189C66.6591 5.72685 67.088 6.08051 67.4222 6.51602C67.7564 6.95154 67.9869 7.45746 68.0964 7.99539C68.2034 8.53985 68.188 9.10129 68.0514 9.63909C67.9148 10.1769 67.6604 10.6776 67.3065 11.105C68.3269 10.743 69.3473 10.3811 70.3677 10.0191C70.9975 9.79567 71.6716 9.53823 72.045 8.96516C72.4781 8.30074 72.3775 7.42008 72.2567 6.62716Z" fill="#2F2E41"/>
</svg>
