<svg width="76" height="83" viewBox="0 0 76 83" fill="none" xmlns="http://www.w3.org/2000/svg">
<path d="M73.6867 0.0917969H2.31326C1.70005 0.0927765 1.11223 0.338056 0.67862 0.773886C0.245013 1.20972 0.000979615 1.80055 0 2.4169V50.8273C0.000590013 51.4438 0.2445 52.0348 0.678192 52.4707C1.11188 52.9066 1.69993 53.1518 2.31326 53.1524H73.6867C74.3001 53.1518 74.8881 52.9066 75.3218 52.4707C75.7555 52.0348 75.9994 51.4438 76 50.8273V2.4169C75.999 1.80054 75.755 1.20971 75.3214 0.773884C74.8878 0.338055 74.3 0.0927765 73.6867 0.0917969Z" fill="#E6E6E6"/>
<path d="M73.2464 51.5481H26.48C19.9271 51.5288 13.648 48.9038 9.01435 44.2463C4.38069 39.5889 1.76907 33.2775 1.74994 26.691V3.01572C1.75 2.66494 1.88848 2.32852 2.13502 2.08025C2.38155 1.83198 2.71599 1.69214 3.06497 1.69141H73.2464C73.5954 1.69213 73.9298 1.83197 74.1764 2.08025C74.4229 2.32852 74.5614 2.66494 74.5615 3.01572V50.2263C74.5611 50.5767 74.4224 50.9127 74.1759 51.1605C73.9293 51.4083 73.5951 51.5477 73.2464 51.5481Z" fill="white"/>
<path d="M69.5634 8.2779H3.89493C3.82667 8.27639 3.7617 8.24808 3.71396 8.19902C3.66621 8.14995 3.63947 8.08405 3.63947 8.01542C3.63947 7.94678 3.66621 7.88088 3.71396 7.83182C3.7617 7.78276 3.82667 7.75444 3.89493 7.75293H69.5634C69.6317 7.75444 69.6966 7.78276 69.7444 7.83182C69.7921 7.88088 69.8189 7.94678 69.8189 8.01542C69.8189 8.08405 69.7921 8.14995 69.7444 8.19902C69.6966 8.24808 69.6317 8.27639 69.5634 8.2779Z" fill="#CACACA"/>
<path d="M8.36436 6.41077C9.20959 6.41077 9.89479 5.70671 9.89479 4.8382C9.89479 3.96969 9.20959 3.26562 8.36436 3.26562C7.51912 3.26562 6.83392 3.96969 6.83392 4.8382C6.83392 5.70671 7.51912 6.41077 8.36436 6.41077Z" fill="#3F3D56"/>
<path d="M13.6513 6.41077C14.4965 6.41077 15.1817 5.70671 15.1817 4.8382C15.1817 3.96969 14.4965 3.26562 13.6513 3.26562C12.806 3.26562 12.1208 3.96969 12.1208 4.8382C12.1208 5.70671 12.806 6.41077 13.6513 6.41077Z" fill="#3F3D56"/>
<path d="M18.9392 6.41077C19.7844 6.41077 20.4696 5.70671 20.4696 4.8382C20.4696 3.96969 19.7844 3.26562 18.9392 3.26562C18.0939 3.26562 17.4088 3.96969 17.4088 4.8382C17.4088 5.70671 18.0939 6.41077 18.9392 6.41077Z" fill="#3F3D56"/>
<path d="M48.6161 31.8726H22.0226C21.5415 31.8788 21.0759 31.7016 20.7195 31.3767C20.3632 31.0517 20.1425 30.6032 20.102 30.1213C20.0853 29.8749 20.1172 29.6276 20.1956 29.3935C20.2741 29.1595 20.3976 28.9432 20.5592 28.7572C20.7208 28.5711 20.9173 28.4189 21.1374 28.3091C21.3575 28.1994 21.597 28.1343 21.8422 28.1176C21.884 28.1147 21.9258 28.1133 21.9678 28.1133H48.6161C49.1121 28.1133 49.5877 28.3113 49.9384 28.6638C50.2891 29.0163 50.4862 29.4944 50.4862 29.9929C50.4862 30.4915 50.2891 30.9696 49.9384 31.3221C49.5877 31.6746 49.1121 31.8726 48.6161 31.8726Z" fill="#78BE13"/>
<path d="M48.6652 21.3437C49.5983 21.3437 50.3547 20.5833 50.3547 19.6455C50.3547 18.7076 49.5983 17.9473 48.6652 17.9473C47.7321 17.9473 46.9757 18.7076 46.9757 19.6455C46.9757 20.5833 47.7321 21.3437 48.6652 21.3437Z" fill="#E6E6E6"/>
<path d="M48.4341 20.529C48.405 20.529 48.3762 20.5222 48.3501 20.509C48.324 20.4959 48.3013 20.4769 48.2838 20.4534L47.8229 19.8357C47.8079 19.8158 47.797 19.7932 47.7908 19.7692C47.7846 19.7451 47.7831 19.72 47.7865 19.6953C47.79 19.6707 47.7982 19.647 47.8108 19.6255C47.8234 19.6041 47.8401 19.5854 47.8599 19.5705C47.8797 19.5555 47.9023 19.5447 47.9263 19.5385C47.9503 19.5324 47.9752 19.5311 47.9997 19.5346C48.0242 19.5382 48.0478 19.5467 48.069 19.5594C48.0903 19.5722 48.1088 19.589 48.1236 19.609L48.4251 20.0131L49.1996 18.8454C49.2271 18.8036 49.27 18.7745 49.3189 18.7645C49.3677 18.7545 49.4185 18.7645 49.4601 18.7921C49.5017 18.8197 49.5306 18.8628 49.5405 18.9119C49.5505 18.961 49.5406 19.0121 49.5131 19.0539L49.5124 19.055L48.5905 20.4449C48.5739 20.47 48.5514 20.4908 48.5251 20.5054C48.4988 20.52 48.4694 20.5281 48.4394 20.5289L48.4341 20.529Z" fill="white"/>
<path d="M48.6652 42.0214C49.5983 42.0214 50.3547 41.2611 50.3547 40.3232C50.3547 39.3853 49.5983 38.625 48.6652 38.625C47.7321 38.625 46.9757 39.3853 46.9757 40.3232C46.9757 41.2611 47.7321 42.0214 48.6652 42.0214Z" fill="#E6E6E6"/>
<path d="M48.4341 41.2067C48.405 41.2067 48.3762 41.1999 48.3501 41.1868C48.324 41.1737 48.3013 41.1546 48.2838 41.1312L47.8229 40.5134C47.8079 40.4936 47.797 40.471 47.7908 40.4469C47.7846 40.4228 47.7831 40.3977 47.7865 40.3731C47.79 40.3484 47.7982 40.3247 47.8108 40.3033C47.8234 40.2818 47.8401 40.2631 47.8599 40.2482C47.8797 40.2333 47.9023 40.2224 47.9263 40.2163C47.9503 40.2101 47.9752 40.2088 47.9997 40.2124C48.0242 40.216 48.0478 40.2244 48.069 40.2371C48.0903 40.2499 48.1088 40.2668 48.1236 40.2868L48.4251 40.6909L49.1996 39.5232C49.2271 39.4814 49.27 39.4523 49.3189 39.4423C49.3677 39.4323 49.4185 39.4422 49.4601 39.4698C49.5017 39.4975 49.5306 39.5406 49.5405 39.5897C49.5505 39.6388 49.5406 39.6898 49.5131 39.7316L49.5124 39.7327L48.5905 41.1226C48.5739 41.1477 48.5514 41.1685 48.5251 41.1831C48.4988 41.1978 48.4694 41.2058 48.4394 41.2067L48.4341 41.2067Z" fill="white"/>
<path d="M35.0582 21.5337H22.0226C21.5415 21.5399 21.0759 21.3627 20.7195 21.0378C20.3632 20.7129 20.1425 20.2643 20.102 19.7824C20.0853 19.536 20.1172 19.2887 20.1956 19.0547C20.2741 18.8206 20.3976 18.6044 20.5592 18.4183C20.7208 18.2323 20.9173 18.08 21.1374 17.9703C21.3575 17.8605 21.597 17.7954 21.8422 17.7787C21.884 17.7759 21.9258 17.7744 21.9678 17.7744H35.0582C35.5542 17.7744 36.0298 17.9724 36.3805 18.325C36.7312 18.6775 36.9282 19.1556 36.9282 19.6541C36.9282 20.1526 36.7312 20.6307 36.3805 20.9832C36.0298 21.3357 35.5542 21.5337 35.0582 21.5337Z" fill="#78BE13"/>
<path d="M48.6156 21.6132H21.9673C21.4506 21.6132 20.9552 21.4069 20.5898 21.0397C20.2245 20.6726 20.0193 20.1745 20.0193 19.6552C20.0193 19.136 20.2245 18.6379 20.5898 18.2707C20.9552 17.9036 21.4506 17.6973 21.9673 17.6973H48.6156C49.1322 17.6973 49.6277 17.9036 49.993 18.2707C50.3584 18.6379 50.5636 19.136 50.5636 19.6552C50.5636 20.1745 50.3584 20.6726 49.993 21.0397C49.6277 21.4069 49.1322 21.6132 48.6156 21.6132ZM21.9673 18.0105C21.5333 18.0105 21.1171 18.1838 20.8102 18.4923C20.5034 18.8007 20.331 19.219 20.331 19.6552C20.331 20.0914 20.5034 20.5098 20.8102 20.8182C21.1171 21.1267 21.5333 21.2999 21.9673 21.2999H48.6156C49.0496 21.2999 49.4658 21.1267 49.7726 20.8182C50.0795 20.5098 50.2519 20.0914 50.2519 19.6552C50.2519 19.219 50.0795 18.8007 49.7726 18.4923C49.4658 18.1838 49.0496 18.0105 48.6156 18.0105H21.9673Z" fill="#3F3D56"/>
<path d="M48.6156 31.9501H21.9673C21.4506 31.9501 20.9552 31.7439 20.5898 31.3767C20.2245 31.0095 20.0193 30.5114 20.0193 29.9922C20.0193 29.4729 20.2245 28.9749 20.5898 28.6077C20.9552 28.2405 21.4506 28.0342 21.9673 28.0342H48.6156C49.1322 28.0342 49.6277 28.2405 49.993 28.6077C50.3584 28.9749 50.5636 29.4729 50.5636 29.9922C50.5636 30.5114 50.3584 31.0095 49.993 31.3767C49.6277 31.7439 49.1322 31.9501 48.6156 31.9501ZM21.9673 28.3475C21.5333 28.3475 21.1171 28.5207 20.8102 28.8292C20.5034 29.1376 20.331 29.556 20.331 29.9922C20.331 30.4284 20.5034 30.8467 20.8102 31.1551C21.1171 31.4636 21.5333 31.6369 21.9673 31.6369H48.6156C49.0496 31.6369 49.4658 31.4636 49.7726 31.1551C50.0795 30.8467 50.2519 30.4284 50.2519 29.9922C50.2519 29.556 50.0795 29.1376 49.7726 28.8292C49.4658 28.5207 49.0496 28.3475 48.6156 28.3475H21.9673Z" fill="#3F3D56"/>
<path d="M29.448 42.2124H22.0226C21.5415 42.2187 21.0759 42.0415 20.7195 41.7165C20.3632 41.3916 20.1425 40.943 20.102 40.4611C20.0853 40.2147 20.1172 39.9674 20.1956 39.7334C20.2741 39.4993 20.3976 39.2831 20.5592 39.097C20.7208 38.911 20.9173 38.7587 21.1374 38.649C21.3575 38.5392 21.597 38.4742 21.8422 38.4574C21.884 38.4546 21.9258 38.4532 21.9678 38.4531H29.448C29.944 38.4531 30.4196 38.6512 30.7703 39.0037C31.121 39.3562 31.3181 39.8343 31.3181 40.3328C31.3181 40.8313 31.121 41.3094 30.7703 41.6619C30.4196 42.0144 29.944 42.2124 29.448 42.2124Z" fill="#78BE13"/>
<path d="M48.6156 42.29H21.9673C21.4506 42.29 20.9552 42.0837 20.5898 41.7165C20.2245 41.3493 20.0193 40.8513 20.0193 40.332C20.0193 39.8127 20.2245 39.3147 20.5898 38.9475C20.9552 38.5803 21.4506 38.374 21.9673 38.374H48.6156C49.1322 38.374 49.6277 38.5803 49.993 38.9475C50.3584 39.3147 50.5636 39.8127 50.5636 40.332C50.5636 40.8513 50.3584 41.3493 49.993 41.7165C49.6277 42.0837 49.1322 42.29 48.6156 42.29ZM21.9673 38.6873C21.5333 38.6873 21.1171 38.8606 20.8102 39.169C20.5034 39.4775 20.331 39.8958 20.331 40.332C20.331 40.7682 20.5034 41.1865 20.8102 41.495C21.1171 41.8034 21.5333 41.9767 21.9673 41.9767H48.6156C49.0496 41.9767 49.4658 41.8034 49.7726 41.495C50.0795 41.1865 50.2519 40.7682 50.2519 40.332C50.2519 39.8958 50.0795 39.4775 49.7726 39.169C49.4658 38.8606 49.0496 38.6873 48.6156 38.6873H21.9673Z" fill="#3F3D56"/>
<path d="M26.9547 15.758H20.7211C20.5558 15.758 20.3973 15.692 20.2804 15.5745C20.1635 15.457 20.0978 15.2976 20.0978 15.1314C20.0978 14.9653 20.1635 14.8059 20.2804 14.6884C20.3973 14.5709 20.5558 14.5049 20.7211 14.5049H26.9547C27.12 14.5049 27.2785 14.5709 27.3954 14.6884C27.5123 14.8059 27.578 14.9653 27.578 15.1314C27.578 15.2976 27.5123 15.457 27.3954 15.5745C27.2785 15.692 27.12 15.758 26.9547 15.758Z" fill="#CCCCCC"/>
<path d="M26.9547 26.0939H20.7211C20.5558 26.0939 20.3973 26.0279 20.2804 25.9104C20.1635 25.7929 20.0978 25.6335 20.0978 25.4674C20.0978 25.3012 20.1635 25.1418 20.2804 25.0243C20.3973 24.9068 20.5558 24.8408 20.7211 24.8408H26.9547C27.12 24.8408 27.2785 24.9068 27.3954 25.0243C27.5123 25.1418 27.578 25.3012 27.578 25.4674C27.578 25.6335 27.5123 25.7929 27.3954 25.9104C27.2785 26.0279 27.12 26.0939 26.9547 26.0939Z" fill="#CCCCCC"/>
<path d="M26.9547 36.4299H20.7211C20.5558 36.4299 20.3973 36.3639 20.2804 36.2464C20.1635 36.1288 20.0978 35.9695 20.0978 35.8033C20.0978 35.6371 20.1635 35.4778 20.2804 35.3603C20.3973 35.2428 20.5558 35.1768 20.7211 35.1768H26.9547C27.12 35.1768 27.2785 35.2428 27.3954 35.3603C27.5123 35.4778 27.578 35.6371 27.578 35.8033C27.578 35.9695 27.5123 36.1288 27.3954 36.2464C27.2785 36.3639 27.12 36.4299 26.9547 36.4299Z" fill="#CCCCCC"/>
<path d="M17.6054 15.891C17.9795 15.891 18.2828 15.5794 18.2828 15.195C18.2828 14.8106 17.9795 14.499 17.6054 14.499C17.2313 14.499 16.9281 14.8106 16.9281 15.195C16.9281 15.5794 17.2313 15.891 17.6054 15.891Z" fill="#3F3D56"/>
<path d="M17.6054 26.2309C17.9795 26.2309 18.2828 25.9192 18.2828 25.5349C18.2828 25.1505 17.9795 24.8389 17.6054 24.8389C17.2313 24.8389 16.9281 25.1505 16.9281 25.5349C16.9281 25.9192 17.2313 26.2309 17.6054 26.2309Z" fill="#3F3D56"/>
<path d="M17.6054 36.5648C17.9795 36.5648 18.2828 36.2532 18.2828 35.8688C18.2828 35.4845 17.9795 35.1729 17.6054 35.1729C17.2313 35.1729 16.9281 35.4845 16.9281 35.8688C16.9281 36.2532 17.2313 36.5648 17.6054 36.5648Z" fill="#3F3D56"/>
<path d="M61.6725 15.7929L64.7783 15.1357L67.1638 16.289C67.1638 16.289 72.8062 18.5704 72.787 20.8198C72.7678 23.0693 71.7761 27.9982 70.6374 28.4911C69.4986 28.984 71.6236 30.627 70.9698 31.6128C70.3159 32.5986 69.3255 39.3333 69.3255 39.3333C69.3255 39.3333 71.641 43.9695 69.682 44.8738C67.7231 45.7781 59.4447 46.6235 58.914 45.4436C58.3834 44.2638 58.3785 44.9076 57.155 44.5857C55.9315 44.2638 57.1563 39.7501 58.2602 39.296C59.3641 38.8419 60.018 28.984 60.018 28.984L58.2602 21.3189L60.9421 17.5245L61.6725 15.7929Z" fill="#3F3D56"/>
<path d="M63.3188 81.2142L61.7004 81.214L60.9305 74.9395L63.3191 74.9396L63.3188 81.2142Z" fill="#FFB6B6"/>
<path d="M63.376 82.9088L58.3992 82.9086V82.8453C58.3992 82.329 58.6033 81.8337 58.9666 81.4686C59.3299 81.1035 59.8226 80.8983 60.3363 80.8983H60.3364L61.2455 80.2051L62.9417 80.8984L63.3761 80.8984L63.376 82.9088Z" fill="#2F2E41"/>
<path d="M69.6932 81.2142L68.0748 81.214L67.3049 74.9395L69.6935 74.9396L69.6932 81.2142Z" fill="#FFB6B6"/>
<path d="M69.7511 82.9088L64.7743 82.9086V82.8453C64.7743 82.329 64.9784 81.8337 65.3417 81.4686C65.705 81.1035 66.1977 80.8983 66.7114 80.8983H66.7115L67.6206 80.2051L69.3168 80.8984L69.7512 80.8984L69.7511 82.9088Z" fill="#2F2E41"/>
<path d="M57.7493 41.9157L56.6051 45.8589L57.9531 62.559C57.9531 62.559 57.2589 63.6032 57.7493 63.6032C58.2397 63.6032 58.8685 63.8347 58.4724 64.4583C58.0762 65.0818 59.4302 67.3205 59.4302 67.3205L61.3454 79.2115L63.7857 79.1753C63.7857 79.1753 65.0264 78.4806 64.3301 77.7781C63.6339 77.0756 63.1435 77.0756 63.7973 76.4184C64.4512 75.7613 64.4512 75.9592 64.4512 75.4495C64.4512 74.9398 65.1062 68.7106 63.5527 66.3212L64.0208 56.5791L65.1233 66.1349L67.3934 78.8829L69.7443 78.8635C69.7443 78.8635 70.8301 77.8115 70.8281 77.0328C70.8261 76.2542 70.1572 76.1895 70.6551 75.7289C71.153 75.2684 71.153 68.1932 69.6819 64.2604L69.6931 46.6687C69.6931 46.6687 71.1385 42.7205 69.6746 41.168C68.2107 39.6156 57.7493 41.9157 57.7493 41.9157Z" fill="#2F2E41"/>
<path d="M72.4833 35.0372L73.4688 24.7768C73.5093 24.342 73.378 23.9086 73.1034 23.5702C72.8288 23.2318 72.4328 23.0154 72.0009 22.9679C71.5645 22.9199 71.1269 23.048 70.7845 23.3242C70.4422 23.6005 70.223 24.002 70.1752 24.4407C70.172 24.47 70.1696 24.4993 70.1679 24.5287L69.4693 35.2182L68.7724 41.6956C68.4884 41.7814 68.2375 41.953 68.0538 42.1872C67.8702 42.4213 67.7627 42.7066 67.746 43.0043C67.7293 43.3019 67.8042 43.5975 67.9605 43.8509C68.1167 44.1044 68.3468 44.3033 68.6195 44.4207C68.8921 44.5381 69.1941 44.5682 69.4844 44.5071C69.7747 44.446 70.0393 44.2965 70.2421 44.079C70.445 43.8615 70.5763 43.5864 70.6182 43.2913C70.6602 42.9962 70.6107 42.6952 70.4765 42.4293L72.4833 35.0372Z" fill="#FFB6B6"/>
<path d="M68.7887 19.5732L72.3395 20.0207C72.3395 20.0207 74.9999 25.0611 74.4523 25.4889C73.9048 25.9166 71.4303 28.5853 69.606 27.3619C67.7817 26.1386 68.7887 19.5732 68.7887 19.5732Z" fill="#3F3D56"/>
<path d="M62.6738 14.7362C64.7551 14.7362 66.4424 13.0402 66.4424 10.9482C66.4424 8.85611 64.7551 7.16016 62.6738 7.16016C60.5924 7.16016 58.9051 8.85611 58.9051 10.9482C58.9051 13.0402 60.5924 14.7362 62.6738 14.7362Z" fill="#FFB6B6"/>
<path d="M64.1296 14.427C63.0481 14.3914 62.9499 14.1042 61.8684 14.0686C61.5241 14.0572 61.1177 14.0098 60.9513 13.7066C60.9028 13.593 60.8812 13.4697 60.8882 13.3463C60.8952 13.2229 60.9306 13.1028 60.9916 12.9955C61.115 12.7824 61.2262 12.5625 61.3248 12.3367C61.3841 12.1597 61.3997 11.9708 61.3701 11.7863C61.3406 11.6019 61.2667 11.4275 61.1551 11.2781C61.0434 11.1288 60.8972 11.009 60.7292 10.9292C60.5612 10.8493 60.3763 10.8118 60.1906 10.8199C59.8615 10.8342 59.5524 10.9897 59.2242 11.0182C58.7741 11.0572 57.7788 9.56341 57.9861 9.15991C58.1878 8.76715 58.5937 8.47081 58.6575 8.03348C58.6993 7.74743 58.5818 7.46323 58.5658 7.17459C58.542 6.7466 59.6213 7.71161 59.4236 7.33179C58.9387 6.40006 63.5081 5.24496 64.2603 6.41204C64.5415 6.84823 65.0426 6.81847 65.4892 7.08043C65.7819 7.25212 66.521 7.84443 66.689 8.21361C66.8434 8.59032 66.9163 8.99571 66.903 9.40292C66.9098 11.2967 66.6227 13.0387 65.103 14.1581" fill="#2F2E41"/>
<path d="M59.4965 36.863L62.3025 26.9483C62.4201 26.5279 62.3686 26.0778 62.159 25.6953C61.9494 25.3127 61.5986 25.0283 61.1823 24.9035C60.7616 24.7773 60.3083 24.8242 59.922 25.034C59.5358 25.2438 59.2483 25.5992 59.1228 26.0221C59.1144 26.0503 59.1068 26.0787 59.0999 26.1073L56.4994 36.4961L54.6544 42.7417C54.3596 42.7748 54.0821 42.8983 53.8596 43.0954C53.637 43.2925 53.4802 43.5537 53.4105 43.8435C53.3408 44.1333 53.3615 44.4376 53.4699 44.7151C53.5783 44.9927 53.769 45.2299 54.0162 45.3947C54.2634 45.5595 54.555 45.6438 54.8516 45.6362C55.1481 45.6285 55.4351 45.5293 55.6736 45.352C55.912 45.1748 56.0904 44.928 56.1845 44.6452C56.2786 44.3625 56.2838 44.0575 56.1994 43.7717L59.4965 36.863Z" fill="#FFB6B6"/>
<path d="M58.6297 20.9844L62.0425 22.0666C62.0425 22.0666 64.2622 25.3428 63.4312 25.8102C62.6003 26.2776 62.2885 26.1787 62.7153 27.0032C63.1421 27.8277 63.7573 27.5059 63.1421 27.8277C62.5269 28.1494 59.6152 30.3271 58.0396 28.7938C56.4641 27.2605 58.6297 20.9844 58.6297 20.9844Z" fill="#3F3D56"/>
<path d="M48.6646 33.1807C50.4214 33.1807 51.8456 31.7492 51.8456 29.9834C51.8456 28.2176 50.4214 26.7861 48.6646 26.7861C46.9078 26.7861 45.4836 28.2176 45.4836 29.9834C45.4836 31.7492 46.9078 33.1807 48.6646 33.1807Z" fill="#78BE13"/>
<path d="M48.2312 31.6485C48.1763 31.6485 48.1221 31.6357 48.073 31.611C48.0238 31.5863 47.9811 31.5504 47.9482 31.5062L47.0803 30.3432C47.024 30.2677 46.9999 30.1729 47.0131 30.0795C47.0264 29.9861 47.0761 29.9019 47.1511 29.8453C47.2262 29.7887 47.3206 29.7644 47.4135 29.7778C47.5064 29.7911 47.5902 29.841 47.6465 29.9165L48.2142 30.6773L49.6724 28.4788C49.7242 28.4001 49.805 28.3453 49.8969 28.3265C49.9889 28.3077 50.0845 28.3263 50.1628 28.3784C50.241 28.4304 50.2955 28.5116 50.3143 28.604C50.333 28.6964 50.3145 28.7925 50.2627 28.8712L50.2613 28.8734L48.5256 31.4902C48.4942 31.5375 48.452 31.5766 48.4025 31.6041C48.353 31.6316 48.2976 31.6468 48.241 31.6484L48.2312 31.6485Z" fill="white"/>
</svg>
