<svg width="108" height="83" viewBox="0 0 108 83" fill="none" xmlns="http://www.w3.org/2000/svg">
<path d="M10.3079 82.7884C10.3034 82.8396 10.3193 82.8905 10.3522 82.93C10.385 82.9696 10.4321 82.9946 10.4833 82.9996H97.9246C97.9742 82.9907 98.0191 82.9647 98.0514 82.9261C98.0837 82.8875 98.1015 82.8387 98.1015 82.7884C98.1015 82.738 98.0837 82.6893 98.0514 82.6507C98.0191 82.612 97.9742 82.586 97.9246 82.5771H10.4833C10.4321 82.5822 10.385 82.6072 10.3522 82.6467C10.3193 82.6863 10.3034 82.7372 10.3079 82.7884Z" fill="#D6D6E3"/>
<path d="M57.2936 61.9473C57.1665 62.8238 56.7279 63.6253 56.0581 64.2049C55.3884 64.7846 54.5323 65.1036 53.6465 65.1036C52.7608 65.1036 51.9047 64.7846 51.2349 64.2049C50.5652 63.6253 50.1266 62.8238 49.9995 61.9473H40.6688V82.5784H66.6243V61.9473H57.2936Z" fill="#D6D6E3"/>
<path d="M105.846 62.4745H1.44698C1.06334 62.4741 0.695518 62.3215 0.424243 62.0503C0.152967 61.779 0.000392455 61.4112 1.90735e-06 61.0275L1.90735e-06 1.44698C0.000392455 1.06333 0.152967 0.695517 0.424243 0.424241C0.695518 0.152965 1.06334 0.000390548 1.44698 0H105.846C106.23 0.000497025 106.597 0.153118 106.869 0.424383C107.14 0.695647 107.292 1.0634 107.293 1.44698V61.0275C107.292 61.4112 107.14 61.779 106.868 62.0503C106.597 62.3215 106.229 62.4741 105.846 62.4745H105.846Z" fill="#090814"/>
<path d="M104.856 2.41504H2.69411V60.0606H104.856V2.41504Z" fill="white"/>
<path d="M5.45753 41.0351L7.60848 40.9131L7.45023 43.001H5.26146L5.45753 41.0351Z" fill="#ED9DA0"/>
<path d="M18.1633 41.4401C18.7465 40.9581 19.4681 40.8684 19.7747 41.2398C20.0812 41.6111 19.857 42.3025 19.2735 42.7847C19.043 42.9804 18.769 43.1182 18.4744 43.1863L15.9772 45.1973L15.0585 44.0052L17.6178 42.1494C17.7403 41.8728 17.9275 41.6296 18.1633 41.4401Z" fill="#ED9DA0"/>
<path d="M3.7297 45.9771C3.72849 45.8882 3.7297 45.1125 4.30358 44.6225C4.9633 44.0593 5.8942 44.2873 6.22063 44.3677C6.9749 44.5524 7.03673 44.876 7.745 45.2084C9.07019 45.8303 7.40971 45.512 8.19831 45.3126C8.47123 45.2435 12.3977 44.9712 13.3752 44.3696C15.2761 43.1996 16.5713 42.4902 16.5713 42.4902L17.4185 44.1828C16.5783 45.3027 15.5863 46.3002 14.471 47.1467C12.7035 48.4404 11.8197 49.0873 10.4767 49.3371C10.3611 49.3586 7.51646 49.8443 5.22536 48.1326C4.70231 47.7422 3.74526 47.0268 3.73037 45.9774L3.7297 45.9771Z" fill="#78BE13"/>
<path d="M6.35623 41.9578C7.98526 41.9578 9.30584 40.6372 9.30584 39.0082C9.30584 37.3792 7.98526 36.0586 6.35623 36.0586C4.72721 36.0586 3.40663 37.3792 3.40663 39.0082C3.40663 40.6372 4.72721 41.9578 6.35623 41.9578Z" fill="#ED9DA0"/>
<path d="M29.4561 58.5371L26.4185 55.4277L24.8505 57.0639L27.1137 60.0453L29.3585 60.302L29.4561 58.5371Z" fill="#ED9DA0"/>
<path d="M12.1109 52.7066C12.2887 52.7214 12.8533 52.8344 13.3928 52.5376C13.6466 52.3926 13.86 52.1864 14.0138 51.9379C14.8051 50.7492 17.8431 48.8956 20.5695 48.7815C21.1864 48.7556 21.5933 48.8272 21.9627 49.0197C22.4864 49.2927 22.6955 49.6838 23.3602 50.5999C23.7238 51.1011 24.126 51.5732 24.494 52.0712C26.6482 54.9863 27.4648 55.2153 27.3814 56.1498C27.2887 57.1868 26.1704 58.1705 25.4272 58.0569C25.1227 58.0104 25.0048 57.7987 24.5982 57.3702C23.4058 56.1138 22.9124 56.346 22.0634 55.3837C21.0722 54.2602 21.202 53.3287 20.6848 53.2927C20.2052 53.2593 20.0008 54.0541 18.9777 55.1097C18.5092 55.5925 18.1757 55.8144 17.1592 56.5194C13.2014 59.2653 13.1383 59.4588 12.3396 59.6772C11.9901 59.7729 9.50977 60.453 8.62622 59.3709C7.24348 57.6774 10.51 52.5736 12.1109 52.7066Z" fill="#090814"/>
<path d="M28.5274 59.2398C28.7508 59.1395 29.0121 59.0222 29.096 58.7525C29.1244 58.6576 29.1307 58.5576 29.1144 58.4599C29.0981 58.3623 29.0597 58.2697 29.0021 58.1892C28.8665 58.0097 28.6658 57.9861 28.6738 57.9543C28.6862 57.9061 29.1609 57.9248 29.682 58.1091C30.0839 58.2619 30.4588 58.4779 30.7924 58.7491C31.2464 59.1036 31.1854 59.1747 31.4701 59.3794C32.344 60.0068 33.1637 59.5124 33.6366 60.1007C33.7278 60.2124 33.7918 60.3436 33.8237 60.4842C33.8555 60.6247 33.8544 60.7708 33.8202 60.9108C33.666 61.4338 32.9159 61.6144 32.5059 61.7074C31.5187 61.9314 30.7714 61.7486 29.991 61.617C27.3372 61.1699 25.8468 61.5768 25.6467 60.9623C25.6089 60.8459 25.6703 60.8558 25.8747 60.002C26.0767 59.1592 26.07 58.9279 26.242 58.8603C26.5009 58.7588 26.6748 59.2208 27.3269 59.3789C27.731 59.4682 28.1534 59.4193 28.5264 59.24L28.5274 59.2398Z" fill="#090814"/>
<path d="M24.0556 68.7099L23.2882 64.4316L21.0721 64.9044L21.2706 68.6422L22.9843 70.1149L24.0556 68.7099Z" fill="#ED9DA0"/>
<path d="M12.9777 54.1452C13.1164 54.2572 13.5201 54.6683 14.1334 54.7253C14.4248 54.7478 14.7172 54.6971 14.984 54.5778C16.3063 54.0386 19.8609 54.2107 22.1809 55.6472C22.7062 55.9726 23.0023 56.26 23.2002 56.6262C23.4802 57.1462 23.4336 57.5873 23.4692 58.7185C23.4886 59.3373 23.5564 59.9538 23.5812 60.5725C23.7267 64.1943 24.2739 64.8422 23.68 65.5687C23.0211 66.3747 21.5433 66.5611 20.9921 66.0494C20.7664 65.84 20.7877 65.5986 20.6918 65.0157C20.4101 63.3065 19.8721 63.2215 19.7099 61.9486C19.5207 60.4624 20.1512 59.7644 19.7435 59.4443C19.3654 59.1474 18.751 59.6905 17.3105 59.9892C16.6515 60.1259 16.2509 60.1218 15.0141 60.1346C10.1974 60.1841 10.0367 60.3089 9.25291 60.0407C8.90998 59.9237 6.47578 59.0936 6.35226 57.702C6.15913 55.5243 11.7279 53.1355 12.9776 54.1444L12.9777 54.1452Z" fill="#090814"/>
<path d="M22.8926 68.7698C23.134 68.8122 23.4156 68.8619 23.6368 68.6859C23.7135 68.6234 23.7749 68.5442 23.8163 68.4544C23.8577 68.3645 23.878 68.2664 23.8757 68.1675C23.8641 67.9428 23.7114 67.8106 23.7359 67.7889C23.7733 67.7559 24.1554 68.0381 24.4832 68.4831C24.73 68.8352 24.9189 69.2246 25.0427 69.6365C25.2194 70.1847 25.129 70.2091 25.2497 70.5381C25.6205 71.548 26.5765 71.5991 26.6374 72.3515C26.6501 72.4951 26.6294 72.6397 26.5768 72.7739C26.5242 72.9081 26.4412 73.0282 26.3343 73.1249C25.9127 73.4715 25.1909 73.1994 24.7994 73.0461C23.8567 72.677 23.3411 72.1061 22.7692 71.5591C20.8245 69.699 19.3627 69.1987 19.5421 68.578C19.5762 68.4605 19.6214 68.5032 20.2702 67.9116C20.9106 67.3277 21.0347 67.1324 21.2152 67.1732C21.4865 67.2344 21.3708 67.7144 21.8217 68.2115C22.1059 68.5123 22.483 68.709 22.8923 68.7701L22.8926 68.7698Z" fill="#090814"/>
<path d="M6.7583 39.5713C6.87311 39.1605 6.72893 39.0109 6.87592 38.8264C6.87592 38.8264 6.93507 38.7523 7.46389 38.5521C7.30791 37.6468 7.42472 37.4936 7.42472 37.4936C7.49939 37.4156 7.59196 37.3569 7.69443 37.3228C7.79689 37.2886 7.90614 37.28 8.01269 37.2977C8.40162 37.3465 8.46976 37.6976 8.71827 37.6897C9.06161 37.6788 9.47334 36.9923 9.34553 36.396C9.24132 35.9102 8.79177 35.5493 8.67911 35.612C8.56645 35.6746 8.16518 35.4003 8.01269 35.4552C7.90848 35.4926 7.41829 35.4428 7.30711 35.4943C7.18573 35.5507 6.8377 35.9014 6.80484 35.8571C6.57389 35.5501 6.57872 35.4428 6.44474 35.3767C6.20722 35.2595 5.94851 35.4762 5.50392 35.6903C4.58791 36.1309 4.31981 35.868 3.89667 36.2391C3.68289 36.4269 3.56836 36.7848 3.34787 37.4935C3.03941 38.4847 2.88531 38.9803 3.03431 39.4536C3.18613 39.9364 3.40983 39.8311 3.73989 40.512C4.10737 41.2699 3.9813 41.7105 4.32786 41.884C4.59609 42.0181 5.0274 41.9328 5.19022 41.6881C5.46905 41.269 4.74844 40.7021 4.99428 40.0417C5.14516 39.6362 5.61054 39.3288 5.89594 39.4144C6.21862 39.5112 6.24236 40.0898 6.44474 40.0808C6.61802 40.0732 6.73832 39.6429 6.7583 39.5713Z" fill="#090814"/>
<path d="M4.52383 42.1076C5.12735 41.4308 7.58596 42.1313 7.81677 43.2052C7.91173 43.647 7.56195 43.8334 7.65999 44.3419C7.8043 45.0859 8.62147 45.0352 9.22807 45.7924C10.0892 46.8675 9.20205 47.9184 10.1689 49.7125C10.3754 50.0959 10.5496 50.419 10.9138 50.7318C11.7493 51.4494 12.5268 51.2033 12.9523 51.8687C13.2705 52.3662 13.1401 52.9794 13.1091 53.123C12.9836 53.7121 12.6433 53.8556 12.4035 54.3383C12.0045 55.1413 12.4562 55.7309 12.482 56.6904C12.514 57.8909 11.8762 59.5548 10.6003 60.1008C9.16705 60.7143 7.4383 59.6985 6.60182 58.6895C6.10264 58.0876 5.95806 57.5324 5.73945 56.847C4.76349 53.7842 4.21214 54.0612 3.46579 51.6333C2.61254 48.8571 2.4449 45.606 3.46579 44.577C3.78499 44.2953 4.03915 43.9475 4.21067 43.5578C4.52973 42.7933 4.25412 42.4103 4.52423 42.1073L4.52383 42.1076Z" fill="#78BE13"/>
<path d="M13.4423 57.862C13.9103 58.4565 13.9828 59.1799 13.6044 59.4777C13.2259 59.7754 12.5399 59.5348 12.0718 58.9399C11.8816 58.7048 11.7504 58.4276 11.6893 58.1314L9.73847 55.5872L10.7466 54.8184L12.7464 57.2995C13.02 57.4287 13.2586 57.6216 13.4423 57.862Z" fill="#ED9DA0"/>
<path d="M6.29732 44.6869C6.38409 44.6675 7.14373 44.51 7.74081 44.9722C8.42681 45.5032 8.39355 46.4609 8.38188 46.7968C8.35506 47.5728 8.05089 47.6994 7.86996 48.4607C7.53145 49.8849 8.17615 51.2083 8.53223 51.9395C8.87215 52.6222 9.31298 53.2498 9.83986 53.8012C10.708 54.7357 11.6816 55.5665 12.741 56.2769L11.2714 57.5832C11.2714 57.5832 8.93042 56.8697 7.34423 55.4402C5.71727 53.9738 3.21507 48.7856 2.69631 47.5219C2.65165 47.413 3.28441 49.1825 4.49252 46.5903C4.76813 45.999 5.27308 44.9157 6.29732 44.6869Z" fill="#78BE13"/>
<path d="M26.4093 44.9768C26.3903 44.9768 26.3714 44.9762 26.3523 44.9749C24.8599 44.8659 23.4173 44.391 22.1518 43.5923C20.8864 42.7936 19.8371 41.6955 19.0967 40.3952C19.0045 40.2343 18.964 40.0489 18.9805 39.8643C18.9971 39.6796 19.0699 39.5044 19.1892 39.3625L23.4353 34.3034C23.5234 34.2007 23.633 34.1185 23.7562 34.0627C23.8795 34.007 24.0135 33.9789 24.1488 33.9805C24.3366 33.985 24.7812 34.0324 24.8674 34.3751C25.377 36.4003 27.5313 38.7804 30.1217 39.096C30.3843 39.1279 30.595 39.3621 30.6849 39.7226C30.72 39.8596 30.7221 40.0029 30.691 40.1408C30.6599 40.2788 30.5964 40.4074 30.5059 40.516L27.1045 44.6468C27.0202 44.7499 26.914 44.833 26.7937 44.89C26.6734 44.9471 26.5418 44.9768 26.4087 44.9768H26.4093ZM24.1326 34.1843C24.0296 34.1844 23.928 34.2068 23.8345 34.25C23.7411 34.2931 23.6581 34.3561 23.5913 34.4344L19.3456 39.4931C19.2531 39.6029 19.1966 39.7385 19.1837 39.8815C19.1707 40.0245 19.202 40.168 19.2732 40.2927C19.9968 41.5641 21.0224 42.6378 22.2594 43.4189C23.4964 44.2 24.9067 44.6644 26.3657 44.7712C26.4761 44.7782 26.5866 44.7588 26.6879 44.7144C26.7892 44.6701 26.8785 44.6022 26.9482 44.5164L30.3498 40.3856C30.4199 40.3015 30.469 40.202 30.4931 40.0951C30.5172 39.9883 30.5156 39.8773 30.4885 39.7713C30.4348 39.5585 30.3043 39.3224 30.0974 39.2972C27.4215 38.9713 25.1968 36.5138 24.6703 34.4241C24.6276 34.2548 24.3709 34.1887 24.1448 34.1833H24.1327L24.1326 34.1843Z" fill="#3F3D56"/>
<path d="M21.6698 40.5611L24.731 37.4394C24.9402 37.2261 24.6124 36.8977 24.403 37.1114L21.3416 40.2331C21.1324 40.4464 21.4603 40.7748 21.6698 40.5611Z" fill="#E6E6E6"/>
<path d="M23.5174 41.4404C24.3624 40.6816 25.0963 39.8076 25.6976 38.8441C25.8562 38.5901 25.455 38.357 25.297 38.61C24.7156 39.539 24.0061 40.3814 23.1893 41.1122C22.9666 41.3119 23.2956 41.6392 23.5174 41.4404Z" fill="#E6E6E6"/>
<path d="M25.1827 42.4932C25.9531 41.6415 26.6054 40.69 27.1222 39.6643C27.2563 39.3982 26.8558 39.163 26.7216 39.4302C26.2248 40.4215 25.5969 41.3414 24.8547 42.1652C24.655 42.3863 24.9822 42.7151 25.1827 42.4932Z" fill="#E6E6E6"/>
<path d="M23.8712 36.8738C25.5758 36.8738 26.9576 35.5211 26.9576 33.8524C26.9576 32.1838 25.5758 30.8311 23.8712 30.8311C22.1666 30.8311 20.7848 32.1838 20.7848 33.8524C20.7848 35.5211 22.1666 36.8738 23.8712 36.8738Z" fill="#78BE13"/>
<path d="M25.477 35.286L24.0531 31.7849C24.042 31.7491 24.0198 31.7177 23.9896 31.6954C23.9595 31.6732 23.9229 31.6611 23.8854 31.6611C23.8479 31.6611 23.8114 31.6732 23.7812 31.6954C23.7511 31.7177 23.7288 31.7491 23.7178 31.7849C23.2506 33.0081 22.9405 34.2857 22.7949 35.5869C22.7699 35.8086 23.1168 35.8069 23.1423 35.5869C23.2005 35.0777 23.285 34.5719 23.3955 34.0714C23.7875 34.0916 24.1802 34.0485 24.5584 33.9436L25.1418 35.3787C25.2252 35.5827 25.5613 35.4933 25.477 35.286ZM23.4745 33.7284C23.5914 33.2495 23.7314 32.777 23.8944 32.3108L24.4267 33.6195C24.1162 33.7012 23.7955 33.7378 23.4745 33.7284Z" fill="white"/>
<path d="M76.7142 21.8613H56.8651C56.4207 21.8613 56.0604 22.2216 56.0604 22.666C56.0604 23.1104 56.4207 23.4707 56.8651 23.4707H76.7142C77.1587 23.4707 77.5189 23.1104 77.5189 22.666C77.5189 22.2216 77.1587 21.8613 76.7142 21.8613Z" fill="#090814"/>
<path d="M80.6036 26.6895H52.9757C52.5313 26.6895 52.1711 27.0497 52.1711 27.4941C52.1711 27.9386 52.5313 28.2988 52.9757 28.2988H80.6036C81.048 28.2988 81.4083 27.9386 81.4083 27.4941C81.4083 27.0497 81.048 26.6895 80.6036 26.6895Z" fill="#F2F2F2"/>
<path d="M80.6036 29.9082H52.9757C52.5313 29.9082 52.1711 30.2685 52.1711 30.7129C52.1711 31.1573 52.5313 31.5176 52.9757 31.5176H80.6036C81.048 31.5176 81.4083 31.1573 81.4083 30.7129C81.4083 30.2685 81.048 29.9082 80.6036 29.9082Z" fill="#F2F2F2"/>
<path d="M57.8152 41.3095L56.0604 40.478C56.7801 41.4824 57.4002 43.051 57.7323 44.2993C58.2944 43.1366 59.2006 41.7139 60.0976 40.8641L58.243 41.3412C59.3858 35.7405 63.684 31.7198 68.6061 31.7198L68.6759 31.5176C63.5345 31.5178 58.9819 35.4827 57.8152 41.3095Z" fill="#3F3D56"/>
<path d="M65.3144 44.2578H52.9757C52.5313 44.2578 52.1711 44.6181 52.1711 45.0625C52.1711 45.5069 52.5313 45.8672 52.9757 45.8672H65.3144C65.7588 45.8672 66.1191 45.5069 66.1191 45.0625C66.1191 44.6181 65.7588 44.2578 65.3144 44.2578Z" fill="#78BE13"/>
<path d="M80.6036 44.2578H68.265C67.8205 44.2578 67.4603 44.6181 67.4603 45.0625C67.4603 45.5069 67.8205 45.8672 68.265 45.8672H80.6036C81.048 45.8672 81.4083 45.5069 81.4083 45.0625C81.4083 44.6181 81.048 44.2578 80.6036 44.2578Z" fill="#D6D6E3"/>
<path d="M65.3144 47.4775H52.9757C52.5313 47.4775 52.1711 47.8378 52.1711 48.2822C52.1711 48.7267 52.5313 49.0869 52.9757 49.0869H65.3144C65.7588 49.0869 66.1191 48.7267 66.1191 48.2822C66.1191 47.8378 65.7588 47.4775 65.3144 47.4775Z" fill="#D6D6E3"/>
<path d="M80.6036 47.4775H68.265C67.8205 47.4775 67.4603 47.8378 67.4603 48.2822C67.4603 48.7267 67.8205 49.0869 68.265 49.0869H80.6036C81.048 49.0869 81.4083 48.7267 81.4083 48.2822C81.4083 47.8378 81.048 47.4775 80.6036 47.4775Z" fill="#D6D6E3"/>
<path d="M66.6599 18.643C69.0301 18.643 70.9516 16.7215 70.9516 14.3513C70.9516 11.981 69.0301 10.0596 66.6599 10.0596C64.2896 10.0596 62.3682 11.981 62.3682 14.3513C62.3682 16.7215 64.2896 18.643 66.6599 18.643Z" fill="#78BE13"/>
<path d="M66.5767 17.3048C66.8556 17.3048 67.0816 17.0787 67.0816 16.7999C67.0816 16.521 66.8556 16.2949 66.5767 16.2949C66.2978 16.2949 66.0717 16.521 66.0717 16.7999C66.0717 17.0787 66.2978 17.3048 66.5767 17.3048Z" fill="white"/>
<path d="M66.5224 11.53C66.1417 11.5339 65.7776 11.6861 65.5075 11.9543C65.2373 12.2225 65.0825 12.5855 65.0758 12.9661C65.0758 12.9733 65.0758 13.0246 65.0758 13.0916C65.0758 13.1899 65.1148 13.2841 65.1843 13.3535C65.2537 13.423 65.348 13.462 65.4462 13.462C65.4949 13.462 65.5431 13.4524 65.5881 13.4338C65.633 13.4151 65.6739 13.3878 65.7083 13.3534C65.7427 13.3189 65.77 13.2781 65.7886 13.2331C65.8072 13.1881 65.8168 13.1399 65.8168 13.0912C65.8168 13.0456 65.8168 13.0141 65.8168 13.0121C65.8167 12.8901 65.8484 12.7702 65.9088 12.6642C65.9691 12.5582 66.056 12.4697 66.161 12.4075C66.2659 12.3453 66.3852 12.3114 66.5071 12.3093C66.6291 12.3071 66.7495 12.3368 66.8565 12.3953C66.9636 12.4539 67.0535 12.5392 67.1175 12.6431C67.1815 12.7469 67.2174 12.8656 67.2216 12.9875C67.2258 13.1094 67.1982 13.2304 67.1415 13.3384C67.0848 13.4464 67.001 13.5378 66.8983 13.6035C66.8983 13.6035 66.3711 13.943 66.2103 14.4082C66.182 14.5036 66.1677 14.6026 66.1678 14.7021C66.1678 14.7423 66.1702 15.1008 66.1749 15.3913C66.1765 15.4915 66.2175 15.587 66.289 15.6573C66.3604 15.7275 66.4566 15.7669 66.5568 15.7668C66.6581 15.7668 66.7553 15.7266 66.8269 15.6549C66.8985 15.5833 66.9388 15.4862 66.9388 15.3849V15.3824C66.9372 15.1165 66.9362 14.8067 66.9362 14.7843C66.9362 14.4984 67.2121 14.2135 67.4386 14.0277C67.7009 13.8153 67.8852 13.5219 67.9626 13.1934C67.9791 13.1257 67.9881 13.0563 67.9894 12.9866C67.9894 12.6001 67.8359 12.2294 67.5626 11.9561C67.2893 11.6828 66.9186 11.5293 66.5321 11.5293L66.5224 11.53Z" fill="white"/>
</svg>
